mtllib Floor_Curved_Large.mtl
o object1
g object1
v 0.50000000 -0.20000000 1.50000000
v -0.32842712 -0.20000000 1.50000000
v -0.32842712 0.00000000 1.50000000
v 0.50000000 0.00000000 1.50000000
v 0.50000000 0.00000000 0.50000000
v 0.08578644 0.00000000 0.50000000
v -0.50000000 0.00000000 -0.08578644
v -0.50000000 0.00000000 -0.50000000
v -1.50000000 -0.00000000 -0.50000000
v -1.50000000 0.00000000 0.32842712
v -1.50000000 -0.20000000 0.32842712
v -1.50000000 -0.20000000 -0.50000000
v -0.50000000 -0.20000000 -0.50000000
v -0.50000000 -0.20000000 -0.08578644
v 0.08578644 -0.20000000 0.50000000
v 0.50000000 -0.20000000 0.50000000
vt 0.00000000 1.00000000
vt 0.00000000 0.00000000
vt 1.00000000 0.00000000
vt 1.00000000 1.00000000
vt 1.00000000 1.00000000
vt 0.50000000 1.00000000
vt 0.50000000 0.79289322
vt 0.20710678 0.50000000
vt 0.00000000 0.50000000
vt 0.00000000 0.00000000
vt 0.41421356 0.00000000
vt 1.00000000 0.58578644
vt 0.00000000 1.00000000
vt 0.00000000 0.00000000
vt 1.00000000 0.00000000
vt 1.00000000 1.00000000
vt 1.00000000 0.00000000
vt 1.00000000 1.00000000
vt 0.00000000 1.00000000
vt 0.00000000 0.00000000
vt 0.00000000 1.00000000
vt 0.00000000 0.00000000
vt 1.00000000 0.00000000
vt 1.00000000 1.00000000
vt 0.00000000 1.00000000
vt 0.00000000 0.00000000
vt 1.00000000 0.00000000
vt 1.00000000 1.00000000
vt 0.00000000 1.00000000
vt 0.00000000 0.00000000
vt 1.00000000 0.00000000
vt 1.00000000 1.00000000
vt 1.00000000 0.00000000
vt 1.00000000 1.00000000
vt 0.00000000 1.00000000
vt 0.00000000 0.00000000
vt 1.00000000 1.00000000
vt 0.50000000 1.00000000
vt 0.50000000 0.79289322
vt 0.20710678 0.50000000
vt 0.00000000 0.50000000
vt 0.00000000 0.00000000
vt 0.41421356 0.00000000
vt 1.00000000 0.58578644
vt 0.00000000 1.00000000
vt 0.00000000 0.00000000
vt 1.00000000 0.00000000
vt 1.00000000 1.00000000
vn 0.00000000 -0.00000000 1.00000000
vn 0.00000000 -0.00000000 1.00000000
vn 0.00000000 -0.00000000 1.00000000
vn 0.00000000 -0.00000000 1.00000000
vn -0.00000000 1.00000000 -0.00000000
vn -0.00000000 1.00000000 -0.00000000
vn -0.00000000 1.00000000 -0.00000000
vn -0.00000000 1.00000000 -0.00000000
vn -0.00000000 1.00000000 -0.00000000
vn -0.00000000 1.00000000 -0.00000000
vn -0.00000000 1.00000000 -0.00000000
vn -0.00000000 1.00000000 -0.00000000
vn -1.00000000 0.00000000 -0.00000000
vn -1.00000000 0.00000000 -0.00000000
vn -1.00000000 0.00000000 -0.00000000
vn -1.00000000 0.00000000 -0.00000000
vn -0.00000000 0.00000000 -1.00000000
vn -0.00000000 0.00000000 -1.00000000
vn -0.00000000 0.00000000 -1.00000000
vn -0.00000000 0.00000000 -1.00000000
vn 1.00000000 -0.00000000 0.00000000
vn 1.00000000 -0.00000000 0.00000000
vn 1.00000000 -0.00000000 0.00000000
vn 1.00000000 -0.00000000 0.00000000
vn 0.70710678 0.00000000 -0.70710678
vn 0.70710678 0.00000000 -0.70710678
vn 0.70710678 0.00000000 -0.70710678
vn 0.70710678 0.00000000 -0.70710678
vn -0.00000000 0.00000000 -1.00000000
vn -0.00000000 0.00000000 -1.00000000
vn -0.00000000 0.00000000 -1.00000000
vn -0.00000000 0.00000000 -1.00000000
vn 1.00000000 -0.00000000 0.00000000
vn 1.00000000 -0.00000000 0.00000000
vn 1.00000000 -0.00000000 0.00000000
vn 1.00000000 -0.00000000 0.00000000
vn 0.00000000 -1.00000000 0.00000000
vn 0.00000000 -1.00000000 0.00000000
vn 0.00000000 -1.00000000 0.00000000
vn 0.00000000 -1.00000000 0.00000000
vn 0.00000000 -1.00000000 0.00000000
vn 0.00000000 -1.00000000 0.00000000
vn 0.00000000 -1.00000000 0.00000000
vn 0.00000000 -1.00000000 0.00000000
vn -0.70710678 -0.00000000 0.70710678
vn -0.70710678 -0.00000000 0.70710678
vn -0.70710678 -0.00000000 0.70710678
vn -0.70710678 -0.00000000 0.70710678
s 1
usemtl Sandstone_Floor
f 4/4/4 3/3/3 1/1/1
f 3/3/3 2/2/2 1/1/1
s 2
f 7/8/8 8/9/9 9/10/10
f 6/7/7 7/8/8 10/11/11
f 6/7/7 10/11/11 3/12/12
f 3/12/12 4/5/5 6/7/7
f 4/5/5 5/6/6 6/7/7
f 7/8/8 9/10/10 10/11/11
s 3
f 10/16/16 9/15/15 11/13/13
f 9/15/15 12/14/14 11/13/13
s 4
f 9/17/17 8/18/18 13/19/19
f 9/17/17 13/19/19 12/20/20
s 5
f 14/21/21 13/22/22 8/23/23
f 14/21/21 8/23/23 7/24/24
s 6
f 15/25/25 14/26/26 7/27/27
f 15/25/25 7/27/27 6/28/28
s 7
f 16/29/29 15/30/30 5/32/32
f 15/30/30 6/31/31 5/32/32
s 8
f 1/36/36 16/35/35 5/34/34
f 1/36/36 5/34/34 4/33/33
s 9
f 15/39/39 16/38/38 1/37/37
f 14/40/40 15/39/39 2/44/44
f 2/44/44 11/43/43 14/40/40
f 11/43/43 12/42/42 14/40/40
f 12/42/42 13/41/41 14/40/40
f 15/39/39 1/37/37 2/44/44
s 10
f 3/48/48 10/47/47 2/45/45
f 10/47/47 11/46/46 2/45/45
