mtllib Prop_Floor_Grooved_Straight.mtl
o object1
g object1
v 0.00000000 -0.20000000 0.50000000
v 0.00000000 -0.20000000 0.00000000
v -0.50000000 -0.20000000 0.00000000
v -0.50000000 -0.20000000 0.50000000
v -0.50000000 -0.05000000 0.05000000
v -0.50000000 -0.15000000 0.05000000
v -0.50000000 -0.15000000 0.00000000
v -0.50000000 0.00000000 0.50000000
v -0.50000000 0.00000000 0.10000000
v 0.00000000 -0.05000000 0.05000000
v 0.00000000 -0.15000000 0.05000000
v 0.00000000 0.00000000 0.10000000
v 0.00000000 0.00000000 0.50000000
v 0.00000000 -0.15000000 0.00000000
vt 1.00000000 0.00000000
vt 1.00000000 1.00000000
vt 0.00000000 1.00000000
vt 0.00000000 0.00000000
vt 0.75000000 0.90000000
vt 0.25000000 0.90000000
vt 0.25000000 1.00000000
vt 0.00000000 1.00000000
vt 0.00000000 0.00000000
vt 1.00000000 0.00000000
vt 1.00000000 0.80000000
vt 0.00000000 0.00000000
vt 1.00000000 0.00000000
vt 1.00000000 1.00000000
vt 0.00000000 1.00000000
vt 0.00000000 1.00000000
vt 0.00000000 0.00000000
vt 1.00000000 0.00000000
vt 1.00000000 1.00000000
vt 1.00000000 0.00000000
vt 1.00000000 1.00000000
vt 0.00000000 1.00000000
vt 0.00000000 0.00000000
vt 1.00000000 1.00000000
vt 0.00000000 1.00000000
vt 0.00000000 0.00000000
vt 1.00000000 0.00000000
vt 0.00000000 1.00000000
vt 0.00000000 0.00000000
vt 1.00000000 0.00000000
vt 1.00000000 1.00000000
vt 0.75000000 0.90000000
vt 0.25000000 0.90000000
vt 0.25000000 1.00000000
vt 0.00000000 1.00000000
vt 0.00000000 0.00000000
vt 1.00000000 0.00000000
vt 1.00000000 0.80000000
vt 0.00000000 0.00000000
vt 1.00000000 0.00000000
vt 1.00000000 1.00000000
vt 0.00000000 1.00000000
vn 0.00000000 -1.00000000 -0.00000000
vn 0.00000000 -1.00000000 -0.00000000
vn 0.00000000 -1.00000000 -0.00000000
vn 0.00000000 -1.00000000 -0.00000000
vn -1.00000000 0.00000000 0.00000000
vn -1.00000000 0.00000000 0.00000000
vn -1.00000000 0.00000000 0.00000000
vn -1.00000000 0.00000000 0.00000000
vn -1.00000000 0.00000000 0.00000000
vn -1.00000000 0.00000000 0.00000000
vn -1.00000000 0.00000000 0.00000000
vn 0.00000000 0.00000000 -1.00000000
vn 0.00000000 0.00000000 -1.00000000
vn 0.00000000 0.00000000 -1.00000000
vn 0.00000000 0.00000000 -1.00000000
vn -0.00000000 0.70710678 -0.70710678
vn -0.00000000 0.70710678 -0.70710678
vn -0.00000000 0.70710678 -0.70710678
vn -0.00000000 0.70710678 -0.70710678
vn -0.00000000 1.00000000 0.00000000
vn -0.00000000 1.00000000 0.00000000
vn -0.00000000 1.00000000 0.00000000
vn -0.00000000 1.00000000 0.00000000
vn 0.00000000 1.00000000 0.00000000
vn 0.00000000 1.00000000 0.00000000
vn 0.00000000 1.00000000 0.00000000
vn 0.00000000 1.00000000 0.00000000
vn -0.00000000 0.00000000 1.00000000
vn -0.00000000 0.00000000 1.00000000
vn -0.00000000 0.00000000 1.00000000
vn -0.00000000 0.00000000 1.00000000
vn 1.00000000 -0.00000000 -0.00000000
vn 1.00000000 -0.00000000 -0.00000000
vn 1.00000000 -0.00000000 -0.00000000
vn 1.00000000 -0.00000000 -0.00000000
vn 1.00000000 -0.00000000 -0.00000000
vn 1.00000000 -0.00000000 -0.00000000
vn 1.00000000 -0.00000000 -0.00000000
vn 0.00000000 -0.00000000 -1.00000000
vn 0.00000000 -0.00000000 -1.00000000
vn 0.00000000 -0.00000000 -1.00000000
vn 0.00000000 -0.00000000 -1.00000000
s 1
usemtl Sandstone_Floor
f 4/4/4 3/3/3 2/2/2
f 4/4/4 2/2/2 1/1/1
s 2
f 6/6/6 7/7/7 3/8/8
f 6/6/6 3/8/8 4/9/9
f 4/9/9 8/10/10 6/6/6
f 8/10/10 9/11/11 6/6/6
f 9/11/11 5/5/5 6/6/6
s 3
f 6/12/12 5/13/13 11/15/15
f 5/13/13 10/14/14 11/15/15
s 4
f 5/16/16 9/17/17 10/19/19
f 9/17/17 12/18/18 10/19/19
s 5
f 13/20/20 12/21/21 8/23/23
f 12/21/21 9/22/22 8/23/23
s 6
usemtl Sandstone_4
f 14/27/27 7/26/26 11/24/24
f 7/26/26 6/25/25 11/24/24
s 7
usemtl Sandstone_Floor
f 13/31/31 8/30/30 1/28/28
f 8/30/30 4/29/29 1/28/28
s 8
f 2/35/35 14/34/34 11/33/33
f 11/33/33 13/37/37 1/36/36
f 11/33/33 12/38/38 13/37/37
f 11/33/33 10/32/32 12/38/38
f 1/36/36 2/35/35 11/33/33
s 9
f 3/39/39 7/40/40 14/41/41
f 3/39/39 14/41/41 2/42/42
