mtllib Prop_Rug_Corner_Outer.mtl
o object1
g object1
v 0.48660254 0.01000000 -0.45000000
v 0.48660254 0.00500000 -0.45000000
v 0.50000000 0.00500000 -0.45000000
v 0.50000000 0.01000000 -0.45000000
v 0.50000000 0.00500000 -0.50000000
v 0.50000000 0.00000000 -0.50000000
v 0.50000000 0.00000000 -0.15000000
v 0.50000000 0.01000000 -0.15000000
v 0.50000000 0.01000000 -0.25000000
v 0.50000000 0.00500000 -0.25000000
v 0.50000000 0.00500000 -0.35000000
v 0.50000000 0.01000000 -0.35000000
v 0.40621778 0.00000000 -0.15000000
v 0.15000000 0.00000000 -0.50000000
v 0.15000000 0.00000000 -0.40621778
v 0.24378222 0.00000000 -0.24378222
v 0.15000000 0.01000000 -0.40621778
v 0.15000000 0.01000000 -0.50000000
v 0.24378222 0.01000000 -0.24378222
v 0.40621778 0.01000000 -0.15000000
v 0.43301270 0.01000000 -0.25000000
v 0.31698730 0.01000000 -0.31698730
v 0.25000000 0.01000000 -0.43301270
v 0.25000000 0.01000000 -0.50000000
v 0.25000000 0.00500000 -0.50000000
v 0.25000000 0.00500000 -0.43301270
v 0.31698730 0.00500000 -0.31698730
v 0.43301270 0.00500000 -0.25000000
v 0.45980762 0.00500000 -0.35000000
v 0.39019238 0.00500000 -0.39019238
v 0.35000000 0.00500000 -0.45980762
v 0.35000000 0.00500000 -0.50000000
v 0.35000000 0.01000000 -0.45980762
v 0.35000000 0.01000000 -0.50000000
v 0.39019238 0.01000000 -0.39019238
v 0.45980762 0.01000000 -0.35000000
v 0.45000000 0.00500000 -0.50000000
v 0.45000000 0.01000000 -0.50000000
v 0.45000000 0.00500000 -0.48660254
v 0.45000000 0.01000000 -0.48660254
v 0.46339746 0.00500000 -0.46339746
v 0.46339746 0.01000000 -0.46339746
vt 1.00000000 1.00000000
vt 0.00000000 1.00000000
vt 0.00000000 0.00000000
vt 1.00000000 0.00000000
vt 0.50000000 0.85714286
vt 0.50000000 1.00000000
vt 0.00000000 1.00000000
vt 0.00000000 0.00000000
vt 1.00000000 0.00000000
vt 1.00000000 0.28571429
vt 0.50000000 0.28571429
vt 0.50000000 0.57142857
vt 1.00000000 0.57142857
vt 1.00000000 0.85714286
vt 0.73205081 0.00000000
vt 1.00000000 0.00000000
vt 1.00000000 1.00000000
vt 0.00000000 1.00000000
vt 0.00000000 0.73205081
vt 0.26794919 0.26794919
vt 1.00000000 1.00000000
vt 0.00000000 1.00000000
vt 0.00000000 0.00000000
vt 1.00000000 0.00000000
vt 1.00000000 1.00000000
vt 0.00000000 1.00000000
vt 0.00000000 0.00000000
vt 1.00000000 0.00000000
vt 1.00000000 1.00000000
vt 0.00000000 1.00000000
vt 0.00000000 0.00000000
vt 1.00000000 0.00000000
vt 1.00000000 1.00000000
vt 0.00000000 1.00000000
vt 0.00000000 0.00000000
vt 1.00000000 0.00000000
vt 0.73205081 0.00000000
vt 1.00000000 0.00000000
vt 1.00000000 0.28571429
vt 0.80860772 0.28571429
vt 0.47710657 0.47710657
vt 0.28571429 0.80860772
vt 0.28571429 1.00000000
vt 0.00000000 1.00000000
vt 0.00000000 0.73205081
vt 0.26794919 0.26794919
vt 1.00000000 1.00000000
vt 0.00000000 1.00000000
vt 0.00000000 0.00000000
vt 1.00000000 0.00000000
vt 1.00000000 1.00000000
vt 0.00000000 1.00000000
vt 0.00000000 0.00000000
vt 1.00000000 0.00000000
vt 1.00000000 1.00000000
vt 0.00000000 1.00000000
vt 0.00000000 0.00000000
vt 1.00000000 0.00000000
vt 1.00000000 1.00000000
vt 0.00000000 1.00000000
vt 0.00000000 0.00000000
vt 1.00000000 0.00000000
vt 0.73205081 0.00000000
vt 1.00000000 0.00000000
vt 1.00000000 0.40000000
vt 0.83923048 0.40000000
vt 0.56076952 0.56076952
vt 0.40000000 0.83923048
vt 0.40000000 1.00000000
vt 0.00000000 1.00000000
vt 0.00000000 0.73205081
vt 0.26794919 0.26794919
vt 1.00000000 1.00000000
vt 0.00000000 1.00000000
vt 0.00000000 0.00000000
vt 1.00000000 0.00000000
vt 1.00000000 1.00000000
vt 0.00000000 1.00000000
vt 0.00000000 0.00000000
vt 1.00000000 0.00000000
vt 1.00000000 1.00000000
vt 0.00000000 1.00000000
vt 0.00000000 0.00000000
vt 1.00000000 0.00000000
vt 1.00000000 1.00000000
vt 0.00000000 1.00000000
vt 0.00000000 0.00000000
vt 1.00000000 0.00000000
vt 1.00000000 1.00000000
vt 0.00000000 1.00000000
vt 0.00000000 0.00000000
vt 0.50000000 0.00000000
vt 0.50000000 0.14285714
vt 1.00000000 0.14285714
vt 1.00000000 0.42857143
vt 0.50000000 0.42857143
vt 0.50000000 0.71428571
vt 1.00000000 0.71428571
vt 1.00000000 1.00000000
vt 0.00000000 1.00000000
vt 0.00000000 0.00000000
vt 1.00000000 0.00000000
vt 1.00000000 1.00000000
vt 0.00000000 1.00000000
vt 0.00000000 0.00000000
vt 1.00000000 0.00000000
vt 0.73205081 0.00000000
vt 1.00000000 0.00000000
vt 1.00000000 0.66666667
vt 0.91068360 0.66666667
vt 0.75598306 0.75598306
vt 0.66666667 0.91068360
vt 0.66666667 1.00000000
vt 0.00000000 1.00000000
vt 0.00000000 0.73205081
vt 0.26794919 0.26794919
vt 1.00000000 1.00000000
vt 0.00000000 1.00000000
vt 0.00000000 0.00000000
vt 1.00000000 0.00000000
vt 0.73205081 0.00000000
vt 1.00000000 0.00000000
vt 1.00000000 1.00000000
vt 0.00000000 1.00000000
vt 0.00000000 0.73205081
vt 0.26794919 0.26794919
vn 0.00000000 0.00000000 -1.00000000
vn 0.00000000 0.00000000 -1.00000000
vn 0.00000000 0.00000000 -1.00000000
vn 0.00000000 0.00000000 -1.00000000
vn 1.00000000 0.00000000 0.00000000
vn 1.00000000 0.00000000 0.00000000
vn 1.00000000 0.00000000 0.00000000
vn 1.00000000 0.00000000 0.00000000
vn 1.00000000 0.00000000 0.00000000
vn 1.00000000 0.00000000 0.00000000
vn 1.00000000 0.00000000 0.00000000
vn 1.00000000 0.00000000 0.00000000
vn 1.00000000 0.00000000 0.00000000
vn 1.00000000 0.00000000 0.00000000
vn 0.00000000 -1.00000000 0.00000000
vn 0.00000000 -1.00000000 0.00000000
vn 0.00000000 -1.00000000 0.00000000
vn 0.00000000 -1.00000000 0.00000000
vn 0.00000000 -1.00000000 0.00000000
vn 0.00000000 -1.00000000 0.00000000
vn -1.00000000 0.00000000 -0.00000000
vn -1.00000000 0.00000000 -0.00000000
vn -1.00000000 0.00000000 -0.00000000
vn -1.00000000 0.00000000 -0.00000000
vn -0.86602540 0.00000000 0.50000000
vn -0.86602540 0.00000000 0.50000000
vn -0.86602540 0.00000000 0.50000000
vn -0.86602540 0.00000000 0.50000000
vn -0.50000000 0.00000000 0.86602540
vn -0.50000000 0.00000000 0.86602540
vn -0.50000000 0.00000000 0.86602540
vn -0.50000000 0.00000000 0.86602540
vn 0.00000000 0.00000000 1.00000000
vn 0.00000000 0.00000000 1.00000000
vn 0.00000000 0.00000000 1.00000000
vn 0.00000000 0.00000000 1.00000000
vn 0.00000000 1.00000000 0.00000000
vn 0.00000000 1.00000000 0.00000000
vn 0.00000000 1.00000000 0.00000000
vn 0.00000000 1.00000000 0.00000000
vn 0.00000000 1.00000000 0.00000000
vn 0.00000000 1.00000000 0.00000000
vn 0.00000000 1.00000000 0.00000000
vn 0.00000000 1.00000000 0.00000000
vn 0.00000000 1.00000000 0.00000000
vn 0.00000000 1.00000000 0.00000000
vn 1.00000000 0.00000000 0.00000000
vn 1.00000000 0.00000000 0.00000000
vn 1.00000000 0.00000000 0.00000000
vn 1.00000000 0.00000000 0.00000000
vn 0.86602540 0.00000000 -0.50000000
vn 0.86602540 0.00000000 -0.50000000
vn 0.86602540 0.00000000 -0.50000000
vn 0.86602540 0.00000000 -0.50000000
vn 0.50000000 0.00000000 -0.86602540
vn 0.50000000 0.00000000 -0.86602540
vn 0.50000000 0.00000000 -0.86602540
vn 0.50000000 0.00000000 -0.86602540
vn 0.00000000 0.00000000 -1.00000000
vn 0.00000000 0.00000000 -1.00000000
vn 0.00000000 0.00000000 -1.00000000
vn 0.00000000 0.00000000 -1.00000000
vn 0.00000000 1.00000000 0.00000000
vn 0.00000000 1.00000000 0.00000000
vn 0.00000000 1.00000000 0.00000000
vn 0.00000000 1.00000000 0.00000000
vn 0.00000000 1.00000000 0.00000000
vn 0.00000000 1.00000000 -0.00000000
vn -0.00000000 1.00000000 0.00000000
vn -0.00000000 1.00000000 -0.00000000
vn -0.00000000 1.00000000 -0.00000000
vn 0.00000000 1.00000000 -0.00000000
vn -1.00000000 0.00000000 -0.00000000
vn -1.00000000 0.00000000 -0.00000000
vn -1.00000000 0.00000000 -0.00000000
vn -1.00000000 0.00000000 -0.00000000
vn -0.86602540 0.00000000 0.50000000
vn -0.86602540 0.00000000 0.50000000
vn -0.86602540 0.00000000 0.50000000
vn -0.86602540 0.00000000 0.50000000
vn -0.50000000 0.00000000 0.86602540
vn -0.50000000 0.00000000 0.86602540
vn -0.50000000 0.00000000 0.86602540
vn -0.50000000 0.00000000 0.86602540
vn 0.00000000 0.00000000 1.00000000
vn 0.00000000 0.00000000 1.00000000
vn 0.00000000 0.00000000 1.00000000
vn 0.00000000 0.00000000 1.00000000
vn 0.00000000 0.00000000 -1.00000000
vn 0.00000000 0.00000000 -1.00000000
vn 0.00000000 0.00000000 -1.00000000
vn 0.00000000 0.00000000 -1.00000000
vn 0.00000000 0.00000000 -1.00000000
vn 0.00000000 0.00000000 -1.00000000
vn 0.00000000 0.00000000 -1.00000000
vn 0.00000000 0.00000000 -1.00000000
vn 0.00000000 0.00000000 -1.00000000
vn 0.00000000 0.00000000 -1.00000000
vn 1.00000000 0.00000000 0.00000000
vn 1.00000000 0.00000000 0.00000000
vn 1.00000000 0.00000000 0.00000000
vn 1.00000000 0.00000000 0.00000000
vn 0.86602540 0.00000000 -0.50000000
vn 0.86602540 0.00000000 -0.50000000
vn 0.86602540 0.00000000 -0.50000000
vn 0.86602540 0.00000000 -0.50000000
vn 0.00000000 1.00000000 0.00000000
vn 0.00000000 1.00000000 0.00000000
vn 0.00000000 1.00000000 0.00000000
vn 0.00000000 1.00000000 0.00000000
vn 0.00000000 1.00000000 0.00000000
vn 0.00000000 1.00000000 0.00000000
vn 0.00000000 1.00000000 0.00000000
vn 0.00000000 1.00000000 0.00000000
vn 0.00000000 1.00000000 0.00000000
vn 0.00000000 1.00000000 0.00000000
vn 0.50000000 0.00000000 -0.86602540
vn 0.50000000 0.00000000 -0.86602540
vn 0.50000000 0.00000000 -0.86602540
vn 0.50000000 0.00000000 -0.86602540
vn 0.00000000 1.00000000 0.00000000
vn 0.00000000 1.00000000 0.00000000
vn 0.00000000 1.00000000 0.00000000
vn 0.00000000 1.00000000 0.00000000
vn 0.00000000 1.00000000 0.00000000
vn 0.00000000 1.00000000 0.00000000
s 1
usemtl Blue_Fabric_1
f 4/4/4 3/3/3 1/1/1
f 3/3/3 2/2/2 1/1/1
s 2
usemtl Blue_Fabric_3
f 6/7/7 5/6/6 3/5/5
f 3/5/5 4/14/14 11/12/12
f 11/12/12 10/11/11 7/8/8
f 10/11/11 8/9/9 7/8/8
f 10/11/11 9/10/10 8/9/9
f 4/14/14 12/13/13 11/12/12
f 11/12/12 7/8/8 6/7/7
f 6/7/7 3/5/5 11/12/12
s 3
usemtl Blue_Fabric_1
f 13/15/15 16/20/20 15/19/19
f 15/19/19 14/18/18 6/17/17
f 15/19/19 6/17/17 13/15/15
f 6/17/17 7/16/16 13/15/15
s 4
f 18/24/24 14/23/23 17/21/21
f 14/23/23 15/22/22 17/21/21
s 5
f 17/28/28 15/27/27 19/25/25
f 15/27/27 16/26/26 19/25/25
s 6
f 19/32/32 16/31/31 20/29/29
f 16/31/31 13/30/30 20/29/29
s 7
f 20/36/36 13/35/35 8/33/33
f 13/35/35 7/34/34 8/33/33
s 8
f 23/42/42 24/43/43 18/44/44
f 22/41/41 23/42/42 17/45/45
f 20/37/37 22/41/41 19/46/46
f 20/37/37 8/38/38 21/40/40
f 8/38/38 9/39/39 21/40/40
f 22/41/41 17/45/45 19/46/46
f 20/37/37 21/40/40 22/41/41
f 23/42/42 18/44/44 17/45/45
s 9
f 23/50/50 26/49/49 24/47/47
f 26/49/49 25/48/48 24/47/47
s 10
f 22/54/54 27/53/53 23/51/51
f 27/53/53 26/52/52 23/51/51
s 11
f 21/58/58 28/57/57 22/55/55
f 28/57/57 27/56/56 22/55/55
s 12
f 9/62/62 10/61/61 21/59/59
f 10/61/61 28/60/60 21/59/59
s 13
usemtl Blue_Fabric_2
f 31/68/68 32/69/69 25/70/70
f 30/67/67 31/68/68 26/71/71
f 30/67/67 26/71/71 27/72/72
f 27/72/72 28/63/63 30/67/67
f 28/63/63 10/64/64 29/66/66
f 10/64/64 11/65/65 29/66/66
f 28/63/63 29/66/66 30/67/67
f 31/68/68 25/70/70 26/71/71
s 14
usemtl Blue_Fabric_1
f 34/76/76 32/75/75 33/73/73
f 32/75/75 31/74/74 33/73/73
s 15
f 33/80/80 31/79/79 35/77/77
f 31/79/79 30/78/78 35/77/77
s 16
f 35/84/84 30/83/83 36/81/81
f 30/83/83 29/82/82 36/81/81
s 17
f 36/88/88 29/87/87 11/86/86
f 36/88/88 11/86/86 12/85/85
s 18
f 37/93/93 5/92/92 6/91/91
f 32/96/96 6/91/91 14/90/90
f 14/90/90 18/89/89 25/97/97
f 18/89/89 24/98/98 25/97/97
f 14/90/90 25/97/97 32/96/96
f 32/96/96 37/93/93 6/91/91
f 32/96/96 34/95/95 37/93/93
f 34/95/95 38/94/94 37/93/93
s 19
f 40/102/102 39/101/101 38/99/99
f 39/101/101 37/100/100 38/99/99
s 20
f 42/106/106 41/105/105 40/103/103
f 41/105/105 39/104/104 40/103/103
s 21
f 38/113/113 34/114/114 33/115/115
f 40/112/112 38/113/113 35/116/116
f 4/109/109 1/110/110 35/116/116
f 36/107/107 12/108/108 4/109/109
f 1/110/110 42/111/111 35/116/116
f 35/116/116 36/107/107 4/109/109
f 42/111/111 40/112/112 35/116/116
f 38/113/113 33/115/115 35/116/116
s 22
f 1/120/120 2/119/119 42/117/117
f 2/119/119 41/118/118 42/117/117
s 23
usemtl Blue_Fabric_3
f 39/125/125 41/126/126 2/121/121
f 2/121/121 3/122/122 5/123/123
f 2/121/121 5/123/123 39/125/125
f 5/123/123 37/124/124 39/125/125
