mtllib Prop_Floor_Pressure_Plate.mtl
o object1
g object1
v 0.50000000 -0.20000000 0.50000000
v 0.50000000 -0.20000000 -0.50000000
v 0.50000000 0.00000000 -0.50000000
v 0.50000000 0.00000000 0.50000000
v 0.50000000 0.00000000 -0.00000000
v -0.50000000 -0.20000000 0.50000000
v -0.50000000 -0.20000000 -0.50000000
v -0.50000000 0.00000000 -0.50000000
v -0.50000000 0.00000000 0.50000000
v -0.50000000 0.00000000 -0.00000000
v -0.40000000 0.00000000 -0.00000000
v -0.40000000 0.00000000 -0.40000000
v 0.40000000 0.00000000 -0.40000000
v 0.40000000 0.00000000 -0.00000000
v 0.40000000 0.00000000 0.40000000
v -0.40000000 0.00000000 0.40000000
v 0.35000000 -0.05000000 -0.35000000
v 0.35000000 -0.05000000 0.35000000
v -0.35000000 -0.05000000 0.35000000
v -0.35000000 -0.05000000 -0.35000000
v 0.35000000 -0.15000000 0.35000000
v 0.35000000 -0.15000000 -0.35000000
v -0.35000000 -0.15000000 -0.35000000
v -0.35000000 -0.15000000 0.35000000
vt 0.00000000 1.00000000
vt 0.00000000 0.00000000
vt 1.00000000 0.00000000
vt 1.00000000 1.00000000
vt 1.00000000 0.50000000
vt 1.00000000 0.00000000
vt 1.00000000 1.00000000
vt 0.00000000 1.00000000
vt 0.00000000 0.00000000
vt 0.00000000 1.00000000
vt 0.00000000 0.00000000
vt 1.00000000 0.00000000
vt 1.00000000 1.00000000
vt 1.00000000 0.50000000
vt 0.00000000 1.00000000
vt 0.00000000 0.00000000
vt 1.00000000 0.00000000
vt 1.00000000 1.00000000
vt 0.50000000 0.10000000
vt 0.10000000 0.10000000
vt 0.10000000 0.90000000
vt 0.50000000 0.90000000
vt 0.50000000 1.00000000
vt 0.00000000 1.00000000
vt 0.00000000 0.00000000
vt 0.50000000 0.00000000
vt 0.90000000 0.90000000
vt 0.90000000 0.10000000
vt 1.00000000 0.00000000
vt 1.00000000 1.00000000
vt 0.00000000 1.00000000
vt 0.00000000 0.00000000
vt 1.00000000 0.00000000
vt 1.00000000 1.00000000
vt 0.00000000 0.00000000
vt 1.00000000 0.00000000
vt 0.93750000 1.00000000
vt 0.06250000 1.00000000
vt 0.50000000 0.00000000
vt 0.06250000 0.00000000
vt 0.93750000 0.00000000
vt 1.00000000 1.00000000
vt 0.00000000 1.00000000
vt 0.50000000 1.00000000
vt 0.06250000 0.00000000
vt 0.93750000 0.00000000
vt 1.00000000 1.00000000
vt 0.00000000 1.00000000
vt 0.00000000 0.00000000
vt 1.00000000 0.00000000
vt 0.93750000 1.00000000
vt 0.06250000 1.00000000
vt 1.00000000 0.00000000
vt 1.00000000 1.00000000
vt 0.00000000 1.00000000
vt 0.00000000 0.00000000
vt 1.00000000 0.00000000
vt 1.00000000 1.00000000
vt 0.00000000 1.00000000
vt 0.00000000 0.00000000
vt 1.00000000 0.00000000
vt 1.00000000 1.00000000
vt 0.00000000 1.00000000
vt 0.00000000 0.00000000
vt 0.00000000 0.00000000
vt 1.00000000 0.00000000
vt 1.00000000 1.00000000
vt 0.00000000 1.00000000
vt 1.00000000 0.00000000
vt 1.00000000 1.00000000
vt 0.00000000 1.00000000
vt 0.00000000 0.00000000
vn 1.00000000 -0.00000000 0.00000000
vn 1.00000000 -0.00000000 0.00000000
vn 1.00000000 -0.00000000 0.00000000
vn 1.00000000 -0.00000000 0.00000000
vn 1.00000000 -0.00000000 0.00000000
vn 0.00000000 -1.00000000 0.00000000
vn 0.00000000 -1.00000000 0.00000000
vn 0.00000000 -1.00000000 0.00000000
vn 0.00000000 -1.00000000 0.00000000
vn -1.00000000 0.00000000 -0.00000000
vn -1.00000000 0.00000000 -0.00000000
vn -1.00000000 0.00000000 -0.00000000
vn -1.00000000 0.00000000 -0.00000000
vn -1.00000000 0.00000000 -0.00000000
vn -0.00000000 -0.00000000 1.00000000
vn -0.00000000 -0.00000000 1.00000000
vn -0.00000000 -0.00000000 1.00000000
vn -0.00000000 -0.00000000 1.00000000
vn -0.00000000 1.00000000 -0.00000000
vn -0.00000000 1.00000000 -0.00000000
vn -0.00000000 1.00000000 -0.00000000
vn -0.00000000 1.00000000 -0.00000000
vn -0.00000000 1.00000000 -0.00000000
vn -0.00000000 1.00000000 -0.00000000
vn -0.00000000 1.00000000 -0.00000000
vn -0.00000000 1.00000000 -0.00000000
vn -0.00000000 1.00000000 -0.00000000
vn -0.00000000 1.00000000 -0.00000000
vn -0.00000000 1.00000000 -0.00000000
vn -0.00000000 1.00000000 -0.00000000
vn -0.00000000 0.00000000 -1.00000000
vn -0.00000000 0.00000000 -1.00000000
vn -0.00000000 0.00000000 -1.00000000
vn -0.00000000 0.00000000 -1.00000000
vn -0.70710678 0.70710678 -0.00000000
vn -0.70710678 0.70710678 -0.00000000
vn -0.70710678 0.70710678 -0.00000000
vn -0.70710678 0.70710678 -0.00000000
vn -0.70710678 0.70710678 -0.00000000
vn 0.70710678 0.70710678 -0.00000000
vn 0.70710678 0.70710678 -0.00000000
vn 0.70710678 0.70710678 -0.00000000
vn 0.70710678 0.70710678 -0.00000000
vn 0.70710678 0.70710678 -0.00000000
vn -0.00000000 0.70710678 -0.70710678
vn -0.00000000 0.70710678 -0.70710678
vn -0.00000000 0.70710678 -0.70710678
vn -0.00000000 0.70710678 -0.70710678
vn -0.00000000 0.70710678 0.70710678
vn -0.00000000 0.70710678 0.70710678
vn -0.00000000 0.70710678 0.70710678
vn -0.00000000 0.70710678 0.70710678
vn -1.00000000 0.00000000 -0.00000000
vn -1.00000000 0.00000000 -0.00000000
vn -1.00000000 0.00000000 -0.00000000
vn -1.00000000 0.00000000 -0.00000000
vn 0.00000000 -0.00000000 1.00000000
vn 0.00000000 -0.00000000 1.00000000
vn 0.00000000 -0.00000000 1.00000000
vn 0.00000000 -0.00000000 1.00000000
vn 1.00000000 -0.00000000 0.00000000
vn 1.00000000 -0.00000000 0.00000000
vn 1.00000000 -0.00000000 0.00000000
vn 1.00000000 -0.00000000 0.00000000
vn -0.00000000 1.00000000 -0.00000000
vn -0.00000000 1.00000000 -0.00000000
vn -0.00000000 1.00000000 -0.00000000
vn -0.00000000 1.00000000 -0.00000000
vn 0.00000000 0.00000000 -1.00000000
vn 0.00000000 0.00000000 -1.00000000
vn 0.00000000 0.00000000 -1.00000000
vn 0.00000000 0.00000000 -1.00000000
s 1
usemtl Sandstone_Floor
f 5/5/5 4/4/4 1/1/1
f 1/1/1 2/2/2 5/5/5
f 2/2/2 3/3/3 5/5/5
s 2
f 7/9/9 2/8/8 1/7/7
f 7/9/9 1/7/7 6/6/6
s 3
f 6/10/10 9/13/13 10/14/14
f 10/14/14 8/12/12 7/11/11
f 10/14/14 7/11/11 6/10/10
s 4
f 4/18/18 9/17/17 1/15/15
f 9/17/17 6/16/16 1/15/15
s 5
f 10/26/26 11/19/19 12/20/20
f 12/20/20 3/24/24 8/25/25
f 13/21/21 5/23/23 3/24/24
f 4/30/30 5/23/23 15/27/27
f 16/28/28 9/29/29 4/30/30
f 4/30/30 15/27/27 16/28/28
f 5/23/23 14/22/22 15/27/27
f 13/21/21 14/22/22 5/23/23
f 12/20/20 13/21/21 3/24/24
f 16/28/28 10/26/26 9/29/29
f 16/28/28 11/19/19 10/26/26
f 8/25/25 10/26/26 12/20/20
s 6
f 2/31/31 7/32/32 8/33/33
f 2/31/31 8/33/33 3/34/34
s 7
f 18/38/38 15/35/35 14/39/39
f 14/39/39 13/36/36 17/37/37
f 14/39/39 17/37/37 18/38/38
s 8
f 11/44/44 16/43/43 19/40/40
f 19/40/40 20/41/41 11/44/44
f 20/41/41 12/42/42 11/44/44
s 9
f 18/45/45 19/46/46 15/48/48
f 19/46/46 16/47/47 15/48/48
s 10
f 13/49/49 12/50/50 20/51/51
f 13/49/49 20/51/51 17/52/52
s 11
f 22/56/56 21/55/55 17/53/53
f 21/55/55 18/54/54 17/53/53
s 12
f 23/60/60 22/59/59 20/57/57
f 22/59/59 17/58/58 20/57/57
s 13
f 20/61/61 19/62/62 24/63/63
f 20/61/61 24/63/63 23/64/64
s 14
f 21/68/68 22/67/67 24/65/65
f 22/67/67 23/66/66 24/65/65
s 15
f 19/69/69 18/70/70 21/71/71
f 19/69/69 21/71/71 24/72/72
o object2
g object2
v 0.35000000 0.00000000 -0.35000000
v 0.35000000 0.00000000 0.35000000
v 0.35000000 -0.15000000 0.35000000
v 0.35000000 -0.15000000 -0.35000000
v -0.35000000 0.00000000 0.35000000
v -0.35000000 -0.15000000 0.35000000
v -0.35000000 0.00000000 -0.35000000
v -0.35000000 -0.15000000 -0.35000000
v -0.30000000 0.05000000 -0.30000000
v 0.30000000 0.05000000 -0.30000000
v 0.30000000 0.05000000 0.30000000
v -0.30000000 0.05000000 0.30000000
vt 1.00000000 0.00000000
vt 1.00000000 1.00000000
vt 0.00000000 1.00000000
vt 0.00000000 0.00000000
vt 1.00000000 0.00000000
vt 1.00000000 1.00000000
vt 0.00000000 1.00000000
vt 0.00000000 0.00000000
vt 1.00000000 0.00000000
vt 1.00000000 1.00000000
vt 0.00000000 1.00000000
vt 0.00000000 0.00000000
vt 1.00000000 0.00000000
vt 1.00000000 1.00000000
vt 0.00000000 1.00000000
vt 0.00000000 0.00000000
vt 0.00000000 0.00000000
vt 1.00000000 0.00000000
vt 1.00000000 1.00000000
vt 0.00000000 1.00000000
vt 1.00000000 0.00000000
vt 1.00000000 1.00000000
vt 0.00000000 1.00000000
vt 0.00000000 0.00000000
vt 0.07142857 0.00000000
vt 0.92857143 0.00000000
vt 1.00000000 1.00000000
vt 0.00000000 1.00000000
vt 0.00000000 0.00000000
vt 1.00000000 0.00000000
vt 0.92857143 1.00000000
vt 0.07142857 1.00000000
vt 0.00000000 0.00000000
vt 1.00000000 0.00000000
vt 0.92857143 1.00000000
vt 0.07142857 1.00000000
vt 0.07142857 0.00000000
vt 0.92857143 0.00000000
vt 1.00000000 1.00000000
vt 0.00000000 1.00000000
vn 1.00000000 -0.00000000 0.00000000
vn 1.00000000 -0.00000000 0.00000000
vn 1.00000000 -0.00000000 0.00000000
vn 1.00000000 -0.00000000 0.00000000
vn -0.00000000 -0.00000000 1.00000000
vn -0.00000000 -0.00000000 1.00000000
vn -0.00000000 -0.00000000 1.00000000
vn -0.00000000 -0.00000000 1.00000000
vn -1.00000000 0.00000000 -0.00000000
vn -1.00000000 0.00000000 -0.00000000
vn -1.00000000 0.00000000 -0.00000000
vn -1.00000000 0.00000000 -0.00000000
vn -0.00000000 0.00000000 -1.00000000
vn -0.00000000 0.00000000 -1.00000000
vn -0.00000000 0.00000000 -1.00000000
vn -0.00000000 0.00000000 -1.00000000
vn 0.00000000 -1.00000000 0.00000000
vn 0.00000000 -1.00000000 0.00000000
vn 0.00000000 -1.00000000 0.00000000
vn 0.00000000 -1.00000000 0.00000000
vn -0.00000000 1.00000000 -0.00000000
vn -0.00000000 1.00000000 -0.00000000
vn -0.00000000 1.00000000 -0.00000000
vn -0.00000000 1.00000000 -0.00000000
vn 0.70710678 0.70710678 -0.00000000
vn 0.70710678 0.70710678 -0.00000000
vn 0.70710678 0.70710678 -0.00000000
vn 0.70710678 0.70710678 -0.00000000
vn -0.70710678 0.70710678 -0.00000000
vn -0.70710678 0.70710678 -0.00000000
vn -0.70710678 0.70710678 -0.00000000
vn -0.70710678 0.70710678 -0.00000000
vn -0.00000000 0.70710678 0.70710678
vn -0.00000000 0.70710678 0.70710678
vn -0.00000000 0.70710678 0.70710678
vn -0.00000000 0.70710678 0.70710678
vn -0.00000000 0.70710678 -0.70710678
vn -0.00000000 0.70710678 -0.70710678
vn -0.00000000 0.70710678 -0.70710678
vn -0.00000000 0.70710678 -0.70710678
s 1
usemtl Sandstone_4
f 25/73/73 26/74/74 27/75/75
f 25/73/73 27/75/75 28/76/76
s 2
f 30/80/80 27/79/79 29/77/77
f 27/79/79 26/78/78 29/77/77
s 3
f 32/84/84 30/83/83 31/81/81
f 30/83/83 29/82/82 31/81/81
s 4
f 31/85/85 25/86/86 28/87/87
f 31/85/85 28/87/87 32/88/88
s 5
f 30/89/89 32/90/90 28/91/91
f 30/89/89 28/91/91 27/92/92
s 6
f 36/96/96 35/95/95 34/94/94
f 36/96/96 34/94/94 33/93/93
s 7
f 34/97/97 35/98/98 26/99/99
f 34/97/97 26/99/99 25/100/100
s 8
f 31/101/101 29/102/102 33/104/104
f 29/102/102 36/103/103 33/104/104
s 9
f 29/105/105 26/106/106 35/107/107
f 29/105/105 35/107/107 36/108/108
s 10
f 33/109/109 34/110/110 25/111/111
f 33/109/109 25/111/111 31/112/112
