mtllib Stairs_Steps_Straight.mtl
o object1
g object1
v 0.40000000 0.30000000 0.20000000
v -0.40000000 0.30000000 0.20000000
v -0.40000000 0.40000000 0.20000000
v 0.40000000 0.40000000 0.20000000
v 0.40000000 0.30000000 0.00000000
v -0.40000000 0.30000000 -0.00000000
v 0.40000000 0.20000000 0.00000000
v -0.40000000 0.20000000 -0.00000000
v 0.40000000 0.20000000 -0.20000000
v -0.40000000 0.20000000 -0.20000000
v 0.40000000 0.10000000 -0.20000000
v -0.40000000 0.10000000 -0.20000000
v 0.40000000 0.10000000 -0.40000000
v -0.40000000 0.10000000 -0.40000000
v 0.40000000 -0.00000000 -0.40000000
v -0.40000000 -0.00000000 -0.40000000
v 0.40000000 -0.00000000 -0.50000000
v -0.40000000 0.00000000 -0.50000000
v 0.40000000 -0.10000000 -0.50000000
v -0.40000000 -0.10000000 -0.50000000
v 0.40000000 -0.20000000 -0.50000000
v -0.40000000 -0.20000000 -0.50000000
v 0.40000000 -0.20000000 1.50000000
v -0.40000000 -0.20000000 1.50000000
v 0.40000000 -0.10000000 1.50000000
v -0.40000000 -0.10000000 1.50000000
v 0.40000000 -0.00000000 1.50000000
v -0.40000000 -0.00000000 1.50000000
v 0.40000000 1.00000000 1.50000000
v -0.40000000 1.00000000 1.50000000
v 0.40000000 1.00000000 1.40000000
v -0.40000000 1.00000000 1.40000000
v 0.40000000 0.90000000 1.40000000
v -0.40000000 0.90000000 1.40000000
v 0.40000000 0.90000000 1.20000000
v -0.40000000 0.90000000 1.20000000
v 0.40000000 0.80000000 1.20000000
v -0.40000000 0.80000000 1.20000000
v 0.40000000 0.80000000 1.00000000
v -0.40000000 0.80000000 1.00000000
v 0.40000000 0.70000000 1.00000000
v -0.40000000 0.70000000 1.00000000
v 0.40000000 0.70000000 0.80000000
v -0.40000000 0.70000000 0.80000000
v 0.40000000 0.60000000 0.80000000
v -0.40000000 0.60000000 0.80000000
v 0.40000000 0.60000000 0.60000000
v -0.40000000 0.60000000 0.60000000
v 0.40000000 0.50000000 0.60000000
v -0.40000000 0.50000000 0.60000000
v 0.40000000 0.50000000 0.40000000
v -0.40000000 0.50000000 0.40000000
v 0.40000000 0.40000000 0.40000000
v -0.40000000 0.40000000 0.40000000
vt 1.00000000 1.00000000
vt 0.00000000 1.00000000
vt 0.00000000 0.00000000
vt 1.00000000 0.00000000
vt 1.00000000 1.00000000
vt 0.00000000 1.00000000
vt 0.00000000 0.00000000
vt 1.00000000 0.00000000
vt 1.00000000 1.00000000
vt 0.00000000 1.00000000
vt 0.00000000 0.00000000
vt 1.00000000 0.00000000
vt 1.00000000 1.00000000
vt 0.00000000 1.00000000
vt 0.00000000 0.00000000
vt 1.00000000 0.00000000
vt 1.00000000 1.00000000
vt 0.00000000 1.00000000
vt 0.00000000 0.00000000
vt 1.00000000 0.00000000
vt 1.00000000 1.00000000
vt 0.00000000 1.00000000
vt 0.00000000 0.00000000
vt 1.00000000 0.00000000
vt 1.00000000 1.00000000
vt 0.00000000 1.00000000
vt 0.00000000 0.00000000
vt 1.00000000 0.00000000
vt 1.00000000 1.00000000
vt 0.00000000 1.00000000
vt 0.00000000 0.00000000
vt 1.00000000 0.00000000
vt 1.00000000 1.00000000
vt 0.00000000 1.00000000
vt 0.00000000 0.00000000
vt 1.00000000 0.00000000
vt 1.00000000 1.00000000
vt 0.00000000 1.00000000
vt 0.00000000 0.00000000
vt 1.00000000 0.00000000
vt 1.00000000 1.00000000
vt 0.00000000 1.00000000
vt 0.00000000 0.00000000
vt 1.00000000 0.00000000
vt 1.00000000 1.00000000
vt 0.00000000 1.00000000
vt 0.00000000 0.00000000
vt 1.00000000 0.00000000
vt 1.00000000 1.00000000
vt 0.00000000 1.00000000
vt 0.00000000 0.00000000
vt 1.00000000 0.00000000
vt 1.00000000 1.00000000
vt 0.00000000 1.00000000
vt 0.00000000 0.00000000
vt 1.00000000 0.00000000
vt 1.00000000 1.00000000
vt 0.00000000 1.00000000
vt 0.00000000 0.00000000
vt 1.00000000 0.00000000
vt 1.00000000 1.00000000
vt 0.00000000 1.00000000
vt 0.00000000 0.00000000
vt 1.00000000 0.00000000
vt 1.00000000 1.00000000
vt 0.00000000 1.00000000
vt 0.00000000 0.00000000
vt 1.00000000 0.00000000
vt 1.00000000 1.00000000
vt 0.00000000 1.00000000
vt 0.00000000 0.00000000
vt 1.00000000 0.00000000
vt 1.00000000 1.00000000
vt 0.00000000 1.00000000
vt 0.00000000 0.00000000
vt 1.00000000 0.00000000
vt 1.00000000 1.00000000
vt 0.00000000 1.00000000
vt 0.00000000 0.00000000
vt 1.00000000 0.00000000
vt 1.00000000 1.00000000
vt 0.00000000 1.00000000
vt 0.00000000 0.00000000
vt 1.00000000 0.00000000
vt 1.00000000 1.00000000
vt 0.00000000 1.00000000
vt 0.00000000 0.00000000
vt 1.00000000 0.00000000
vt 1.00000000 1.00000000
vt 0.00000000 1.00000000
vt 0.00000000 0.00000000
vt 1.00000000 0.00000000
vt 1.00000000 1.00000000
vt 0.00000000 1.00000000
vt 0.00000000 0.00000000
vt 1.00000000 0.00000000
vt 1.00000000 1.00000000
vt 0.00000000 1.00000000
vt 0.00000000 0.00000000
vt 1.00000000 0.00000000
vt 1.00000000 1.00000000
vt 0.00000000 1.00000000
vt 0.00000000 0.00000000
vt 1.00000000 0.00000000
vt 0.00000000 0.08333333
vt 0.00000000 0.00000000
vt 1.00000000 0.00000000
vt 1.00000000 0.08333333
vt 1.00000000 0.16666667
vt 1.00000000 1.00000000
vt 0.95000000 1.00000000
vt 0.95000000 0.91666667
vt 0.85000000 0.91666667
vt 0.85000000 0.83333333
vt 0.75000000 0.83333333
vt 0.75000000 0.75000000
vt 0.65000000 0.75000000
vt 0.65000000 0.66666667
vt 0.55000000 0.66666667
vt 0.55000000 0.58333333
vt 0.45000000 0.58333333
vt 0.45000000 0.50000000
vt 0.35000000 0.50000000
vt 0.35000000 0.41666667
vt 0.25000000 0.41666667
vt 0.25000000 0.33333333
vt 0.15000000 0.33333333
vt 0.15000000 0.25000000
vt 0.05000000 0.25000000
vt 0.05000000 0.16666667
vt 0.00000000 0.16666667
vt 1.00000000 1.00000000
vt 0.00000000 1.00000000
vt 0.00000000 0.00000000
vt 1.00000000 0.00000000
vt 0.00000000 0.08333333
vt 0.00000000 0.00000000
vt 1.00000000 0.00000000
vt 1.00000000 0.08333333
vt 1.00000000 0.16666667
vt 1.00000000 1.00000000
vt 0.95000000 1.00000000
vt 0.95000000 0.91666667
vt 0.85000000 0.91666667
vt 0.85000000 0.83333333
vt 0.75000000 0.83333333
vt 0.75000000 0.75000000
vt 0.65000000 0.75000000
vt 0.65000000 0.66666667
vt 0.55000000 0.66666667
vt 0.55000000 0.58333333
vt 0.45000000 0.58333333
vt 0.45000000 0.50000000
vt 0.35000000 0.50000000
vt 0.35000000 0.41666667
vt 0.25000000 0.41666667
vt 0.25000000 0.33333333
vt 0.15000000 0.33333333
vt 0.15000000 0.25000000
vt 0.05000000 0.25000000
vt 0.05000000 0.16666667
vt 0.00000000 0.16666667
vn 0.00000000 0.00000000 -1.00000000
vn 0.00000000 0.00000000 -1.00000000
vn 0.00000000 0.00000000 -1.00000000
vn 0.00000000 0.00000000 -1.00000000
vn 0.00000000 1.00000000 0.00000000
vn 0.00000000 1.00000000 0.00000000
vn 0.00000000 1.00000000 0.00000000
vn 0.00000000 1.00000000 0.00000000
vn 0.00000000 0.00000000 -1.00000000
vn 0.00000000 0.00000000 -1.00000000
vn 0.00000000 0.00000000 -1.00000000
vn 0.00000000 0.00000000 -1.00000000
vn 0.00000000 1.00000000 0.00000000
vn 0.00000000 1.00000000 0.00000000
vn 0.00000000 1.00000000 0.00000000
vn 0.00000000 1.00000000 0.00000000
vn 0.00000000 0.00000000 -1.00000000
vn 0.00000000 0.00000000 -1.00000000
vn 0.00000000 0.00000000 -1.00000000
vn 0.00000000 0.00000000 -1.00000000
vn 0.00000000 1.00000000 0.00000000
vn 0.00000000 1.00000000 0.00000000
vn 0.00000000 1.00000000 0.00000000
vn 0.00000000 1.00000000 0.00000000
vn 0.00000000 0.00000000 -1.00000000
vn 0.00000000 0.00000000 -1.00000000
vn 0.00000000 0.00000000 -1.00000000
vn 0.00000000 0.00000000 -1.00000000
vn 0.00000000 1.00000000 0.00000000
vn 0.00000000 1.00000000 0.00000000
vn 0.00000000 1.00000000 0.00000000
vn 0.00000000 1.00000000 0.00000000
vn 0.00000000 0.00000000 -1.00000000
vn 0.00000000 0.00000000 -1.00000000
vn 0.00000000 0.00000000 -1.00000000
vn 0.00000000 0.00000000 -1.00000000
vn 0.00000000 -0.00000000 -1.00000000
vn 0.00000000 -0.00000000 -1.00000000
vn -0.00000000 -1.00000000 0.00000000
vn -0.00000000 -1.00000000 0.00000000
vn -0.00000000 -1.00000000 0.00000000
vn -0.00000000 -1.00000000 0.00000000
vn 0.00000000 0.00000000 1.00000000
vn 0.00000000 0.00000000 1.00000000
vn 0.00000000 0.00000000 1.00000000
vn 0.00000000 0.00000000 1.00000000
vn 0.00000000 0.00000000 1.00000000
vn 0.00000000 0.00000000 1.00000000
vn -0.00000000 -0.00000000 1.00000000
vn -0.00000000 -0.00000000 1.00000000
vn 0.00000000 1.00000000 -0.00000000
vn 0.00000000 1.00000000 -0.00000000
vn 0.00000000 1.00000000 -0.00000000
vn 0.00000000 1.00000000 -0.00000000
vn 0.00000000 0.00000000 -1.00000000
vn 0.00000000 0.00000000 -1.00000000
vn 0.00000000 0.00000000 -1.00000000
vn 0.00000000 0.00000000 -1.00000000
vn 0.00000000 1.00000000 0.00000000
vn 0.00000000 1.00000000 0.00000000
vn 0.00000000 1.00000000 0.00000000
vn 0.00000000 1.00000000 0.00000000
vn 0.00000000 -0.00000000 -1.00000000
vn 0.00000000 -0.00000000 -1.00000000
vn 0.00000000 -0.00000000 -1.00000000
vn 0.00000000 -0.00000000 -1.00000000
vn 0.00000000 1.00000000 -0.00000000
vn 0.00000000 1.00000000 -0.00000000
vn 0.00000000 1.00000000 -0.00000000
vn 0.00000000 1.00000000 -0.00000000
vn 0.00000000 0.00000000 -1.00000000
vn 0.00000000 0.00000000 -1.00000000
vn 0.00000000 0.00000000 -1.00000000
vn 0.00000000 0.00000000 -1.00000000
vn 0.00000000 1.00000000 0.00000000
vn 0.00000000 1.00000000 0.00000000
vn 0.00000000 1.00000000 0.00000000
vn 0.00000000 1.00000000 0.00000000
vn 0.00000000 -0.00000000 -1.00000000
vn 0.00000000 -0.00000000 -1.00000000
vn 0.00000000 -0.00000000 -1.00000000
vn 0.00000000 -0.00000000 -1.00000000
vn 0.00000000 1.00000000 0.00000000
vn 0.00000000 1.00000000 0.00000000
vn 0.00000000 1.00000000 0.00000000
vn 0.00000000 1.00000000 0.00000000
vn 0.00000000 0.00000000 -1.00000000
vn 0.00000000 0.00000000 -1.00000000
vn 0.00000000 0.00000000 -1.00000000
vn 0.00000000 0.00000000 -1.00000000
vn 0.00000000 1.00000000 -0.00000000
vn 0.00000000 1.00000000 -0.00000000
vn 0.00000000 1.00000000 -0.00000000
vn 0.00000000 1.00000000 -0.00000000
vn 0.00000000 -0.00000000 -1.00000000
vn 0.00000000 -0.00000000 -1.00000000
vn 0.00000000 -0.00000000 -1.00000000
vn 0.00000000 -0.00000000 -1.00000000
vn 1.00000000 -0.00000000 -0.00000000
vn 1.00000000 -0.00000000 -0.00000000
vn 1.00000000 -0.00000000 -0.00000000
vn 1.00000000 -0.00000000 -0.00000000
vn 1.00000000 -0.00000000 -0.00000000
vn 1.00000000 -0.00000000 -0.00000000
vn 1.00000000 -0.00000000 -0.00000000
vn 1.00000000 -0.00000000 -0.00000000
vn 1.00000000 -0.00000000 -0.00000000
vn 1.00000000 -0.00000000 -0.00000000
vn 1.00000000 -0.00000000 -0.00000000
vn 1.00000000 -0.00000000 -0.00000000
vn 1.00000000 -0.00000000 -0.00000000
vn 1.00000000 -0.00000000 -0.00000000
vn 1.00000000 -0.00000000 -0.00000000
vn 1.00000000 -0.00000000 -0.00000000
vn 1.00000000 -0.00000000 -0.00000000
vn 1.00000000 -0.00000000 -0.00000000
vn 1.00000000 -0.00000000 -0.00000000
vn 1.00000000 -0.00000000 -0.00000000
vn 1.00000000 -0.00000000 -0.00000000
vn 1.00000000 -0.00000000 -0.00000000
vn 1.00000000 -0.00000000 -0.00000000
vn 1.00000000 -0.00000000 -0.00000000
vn 1.00000000 -0.00000000 -0.00000000
vn 1.00000000 -0.00000000 -0.00000000
vn 1.00000000 -0.00000000 -0.00000000
vn 0.00000000 1.00000000 0.00000000
vn 0.00000000 1.00000000 0.00000000
vn 0.00000000 1.00000000 0.00000000
vn 0.00000000 1.00000000 0.00000000
vn -1.00000000 0.00000000 0.00000000
vn -1.00000000 0.00000000 0.00000000
vn -1.00000000 0.00000000 0.00000000
vn -1.00000000 0.00000000 0.00000000
vn -1.00000000 0.00000000 0.00000000
vn -1.00000000 0.00000000 0.00000000
vn -1.00000000 0.00000000 0.00000000
vn -1.00000000 0.00000000 0.00000000
vn -1.00000000 0.00000000 0.00000000
vn -1.00000000 0.00000000 0.00000000
vn -1.00000000 0.00000000 0.00000000
vn -1.00000000 0.00000000 0.00000000
vn -1.00000000 0.00000000 0.00000000
vn -1.00000000 0.00000000 0.00000000
vn -1.00000000 0.00000000 0.00000000
vn -1.00000000 0.00000000 0.00000000
vn -1.00000000 0.00000000 0.00000000
vn -1.00000000 0.00000000 0.00000000
vn -1.00000000 0.00000000 0.00000000
vn -1.00000000 0.00000000 0.00000000
vn -1.00000000 0.00000000 0.00000000
vn -1.00000000 0.00000000 0.00000000
vn -1.00000000 0.00000000 0.00000000
vn -1.00000000 0.00000000 0.00000000
vn -1.00000000 0.00000000 0.00000000
vn -1.00000000 0.00000000 0.00000000
vn -1.00000000 0.00000000 0.00000000
s 1
usemtl Sandstone_Floor
f 1/1/1 2/2/2 4/4/4
f 2/2/2 3/3/3 4/4/4
s 2
f 5/5/5 6/6/6 1/8/8
f 6/6/6 2/7/7 1/8/8
s 3
f 7/9/9 8/10/10 5/12/12
f 8/10/10 6/11/11 5/12/12
s 4
f 9/13/13 10/14/14 7/16/16
f 10/14/14 8/15/15 7/16/16
s 5
f 11/17/17 12/18/18 9/20/20
f 12/18/18 10/19/19 9/20/20
s 6
f 13/21/21 14/22/22 11/24/24
f 14/22/22 12/23/23 11/24/24
s 7
f 15/25/25 16/26/26 13/28/28
f 16/26/26 14/27/27 13/28/28
s 8
f 17/29/29 18/30/30 15/32/32
f 18/30/30 16/31/31 15/32/32
s 9
f 19/33/33 20/34/34 17/36/36
f 21/37/37 22/38/38 20/39/34
f 20/34/34 18/35/35 17/36/36
f 21/37/37 20/39/34 19/40/33
s 10
f 23/41/39 24/42/40 21/44/42
f 24/42/40 22/43/41 21/44/42
s 11
f 25/45/43 26/46/44 23/48/46
f 26/46/44 24/47/45 23/48/46
f 28/50/48 26/51/44 25/52/43
f 30/54/50 28/55/48 27/56/47
f 29/53/49 30/54/50 27/56/47
f 27/49/47 28/50/48 25/52/43
s 12
f 31/57/51 32/58/52 29/60/54
f 32/58/52 30/59/53 29/60/54
s 13
f 33/61/55 34/62/56 31/64/58
f 34/62/56 32/63/57 31/64/58
s 14
f 35/65/59 36/66/60 33/68/62
f 36/66/60 34/67/61 33/68/62
s 15
f 37/69/63 38/70/64 35/72/66
f 38/70/64 36/71/65 35/72/66
s 16
f 39/73/67 40/74/68 37/76/70
f 40/74/68 38/75/69 37/76/70
s 17
f 41/77/71 42/78/72 40/79/73
f 41/77/71 40/79/73 39/80/74
s 18
f 43/81/75 44/82/76 41/84/78
f 44/82/76 42/83/77 41/84/78
s 19
f 45/85/79 46/86/80 43/88/82
f 46/86/80 44/87/81 43/88/82
s 20
f 47/89/83 48/90/84 45/92/86
f 48/90/84 46/91/85 45/92/86
s 21
f 49/93/87 50/94/88 47/96/90
f 50/94/88 48/95/89 47/96/90
s 22
f 51/97/91 52/98/92 49/100/94
f 52/98/92 50/99/93 49/100/94
s 23
f 53/101/95 54/102/96 51/104/98
f 54/102/96 52/103/97 51/104/98
s 24
f 19/105/99 17/131/125 15/130/124
f 21/106/100 15/130/124 11/128/122
f 11/128/122 7/126/120 23/107/101
f 1/124/118 53/122/116 23/107/101
f 53/122/116 51/121/115 49/120/114
f 49/120/114 27/109/103 25/108/102
f 45/118/112 41/116/110 27/109/103
f 41/116/110 39/115/109 37/114/108
f 37/114/108 35/113/107 33/112/106
f 33/112/106 31/111/105 29/110/104
f 45/118/112 43/117/111 41/116/110
f 41/116/110 37/114/108 27/109/103
f 37/114/108 33/112/106 27/109/103
f 33/112/106 29/110/104 27/109/103
f 49/120/114 45/118/112 27/109/103
f 49/120/114 47/119/113 45/118/112
f 1/124/118 4/123/117 53/122/116
f 53/122/116 49/120/114 23/107/101
f 49/120/114 25/108/102 23/107/101
f 7/126/120 1/124/118 23/107/101
f 7/126/120 5/125/119 1/124/118
f 11/128/122 9/127/121 7/126/120
f 23/107/101 21/106/100 11/128/122
f 15/130/124 13/129/123 11/128/122
f 21/106/100 19/105/99 15/130/124
s 25
f 4/132/126 3/133/127 53/135/129
f 3/133/127 54/134/128 53/135/129
s 26
f 30/141/135 32/142/136 34/143/137
f 28/140/134 34/143/137 38/145/139
f 38/145/139 40/146/140 42/147/141
f 42/147/141 44/148/142 46/149/143
f 46/149/143 48/150/144 50/151/145
f 24/138/132 50/151/145 54/153/147
f 54/153/147 3/154/148 2/155/149
f 2/155/149 6/156/150 8/157/151
f 8/157/151 10/158/152 12/159/153
f 12/159/153 16/161/155 22/137/131
f 16/161/155 20/136/130 22/137/131
f 16/161/155 18/162/156 20/136/130
f 12/159/153 14/160/154 16/161/155
f 24/138/132 8/157/151 12/159/153
f 24/138/132 2/155/149 8/157/151
f 24/138/132 54/153/147 2/155/149
f 12/159/153 22/137/131 24/138/132
f 24/138/132 26/139/133 50/151/145
f 50/151/145 52/152/146 54/153/147
f 26/139/133 28/140/134 50/151/145
f 28/140/134 46/149/143 50/151/145
f 28/140/134 42/147/141 46/149/143
f 28/140/134 38/145/139 42/147/141
f 34/143/137 36/144/138 38/145/139
f 28/140/134 30/141/135 34/143/137
