mtllib Stairs_Railing_Ramp_Curved_Large.mtl
o object1
g object1
v -1.60000000 0.40000000 0.36984848
v -1.60000000 0.15000000 -0.50000000
v -1.54698485 0.20000000 -0.50000000
v -1.54698485 0.45000000 0.34788889
v -1.45000000 0.20000000 -0.50000000
v -1.45000000 0.45000000 0.30771645
v -1.40000000 0.15000000 -0.50000000
v -1.40000000 0.40000000 0.28700577
v -1.40000000 -0.00000000 0.28700577
v -1.40000000 0.00000000 -0.50000000
v -0.28700577 0.90000000 1.40000000
v -0.28700577 0.00000000 1.40000000
v 0.50000000 1.15000000 1.40000000
v 0.50000000 -0.00000000 1.40000000
v 0.50000000 0.00000000 1.60000000
v 0.50000000 1.15000000 1.60000000
v 0.50000000 1.20000000 1.54698485
v 0.50000000 1.20000000 1.45000000
v -0.36984848 0.90000000 1.60000000
v -0.34788889 0.95000000 1.54698485
v -0.30771645 0.95000000 1.45000000
v -0.36984848 -0.00000000 1.60000000
v -1.60000000 0.00000000 0.36984848
v -1.60000000 0.00000000 -0.50000000
v -0.87885822 0.70000000 0.87885822
v -0.94743687 0.70000000 0.94743687
vt 1.00000000 1.00000000
vt 0.00000000 1.00000000
vt 0.00000000 0.00000000
vt 1.00000000 0.00000000
vt 1.00000000 1.00000000
vt 0.00000000 1.00000000
vt 0.00000000 0.00000000
vt 1.00000000 0.00000000
vt 1.00000000 1.00000000
vt 0.00000000 1.00000000
vt 0.00000000 0.00000000
vt 1.00000000 0.00000000
vt 1.00000000 0.00000000
vt 1.00000000 1.00000000
vt 0.00000000 0.84375000
vt 0.00000000 0.00000000
vt 1.00000000 0.00000000
vt 1.00000000 1.00000000
vt 0.00000000 0.93827160
vt 0.00000000 0.00000000
vt 1.00000000 0.00000000
vt 1.00000000 1.00000000
vt 0.00000000 0.98855835
vt 0.00000000 0.00000000
vt 0.00000000 0.00000000
vt 1.00000000 0.00000000
vt 1.00000000 0.95833333
vt 0.73492424 1.00000000
vt 0.25000000 1.00000000
vt 0.00000000 0.95833333
vt 1.00000000 1.00000000
vt 0.00000000 1.00000000
vt 0.00000000 0.00000000
vt 1.00000000 0.00000000
vt 1.00000000 1.00000000
vt 0.00000000 1.00000000
vt 0.00000000 0.00000000
vt 1.00000000 0.00000000
vt 0.00000000 1.00000000
vt 0.00000000 0.01144165
vt 1.00000000 0.00000000
vt 1.00000000 1.00000000
vt 0.00000000 1.00000000
vt 0.00000000 0.06172840
vt 1.00000000 0.00000000
vt 1.00000000 1.00000000
vt 1.00000000 1.00000000
vt 0.00000000 1.00000000
vt 0.00000000 0.00000000
vt 1.00000000 0.00000000
vt 0.37476465 0.90476190
vt 0.90476190 0.37476465
vt 0.90476190 0.00000000
vt 1.00000000 0.00000000
vt 1.00000000 0.41421356
vt 0.41421356 1.00000000
vt 0.00000000 1.00000000
vt 0.00000000 0.90476190
vt 1.00000000 1.00000000
vt 0.00000000 1.00000000
vt 0.00000000 0.00000000
vt 1.00000000 0.00000000
vt 0.50000000 1.00000000
vt 0.50000000 1.00000000
vt 0.00000000 1.00000000
vt 0.00000000 0.00000000
vt 0.50000000 0.00000000
vt 1.00000000 0.00000000
vt 1.00000000 1.00000000
vt 1.00000000 1.00000000
vt 0.00000000 1.00000000
vt 0.00000000 0.00000000
vt 1.00000000 0.00000000
vt 0.50000000 0.00000000
vt 0.00000000 1.00000000
vt 0.00000000 0.15625000
vt 1.00000000 0.00000000
vt 1.00000000 1.00000000
vt 1.00000000 0.25000000
vt 1.00000000 0.73492424
vt 0.75000000 1.00000000
vt 0.00000000 1.00000000
vt 0.00000000 0.00000000
vt 0.75000000 0.00000000
vn -0.71436375 0.67254857 -0.19329475
vn -0.67159369 0.71209283 -0.20466002
vn -0.67085692 0.71131163 -0.20973020
vn -0.71467880 0.67089773 -0.19781417
vn -0.11634927 0.95266077 -0.28089198
vn 0.00000000 0.95917514 -0.28281275
vn 0.00000000 0.95528839 -0.29567566
vn -0.12156455 0.94820352 -0.29348279
vn 0.63994954 0.73405977 -0.22720219
vn 0.69075678 0.69075678 -0.21379928
vn 0.68991648 0.68991648 -0.21915865
vn 0.63760400 0.73421067 -0.23322913
vn 1.00000000 -0.00000000 -0.00000000
vn 1.00000000 -0.00000000 -0.00000000
vn 1.00000000 0.00000000 -0.00000000
vn 1.00000000 0.00000000 -0.00000000
vn 0.70710678 -0.00000000 -0.70710678
vn 0.70710678 -0.00000000 -0.70710678
vn 0.70710678 -0.00000000 -0.70710678
vn 0.70710678 -0.00000000 -0.70710678
vn 0.00000000 0.00000000 -1.00000000
vn 0.00000000 0.00000000 -1.00000000
vn 0.00000000 0.00000000 -1.00000000
vn 0.00000000 0.00000000 -1.00000000
vn 1.00000000 -0.00000000 0.00000000
vn 1.00000000 -0.00000000 0.00000000
vn 1.00000000 -0.00000000 0.00000000
vn 1.00000000 -0.00000000 0.00000000
vn 1.00000000 -0.00000000 0.00000000
vn 1.00000000 -0.00000000 0.00000000
vn -0.21653563 0.75341275 0.62087161
vn -0.20466002 0.71209283 0.67159369
vn -0.20973020 0.71131163 0.67085692
vn -0.22219026 0.75357062 0.61867828
vn -0.28089198 0.95266077 -0.11634927
vn -0.28281275 0.95917514 0.00000000
vn -0.29567566 0.95528839 0.00000000
vn -0.29348279 0.94820352 -0.12156455
vn 0.00000000 0.00000000 1.00000000
vn 0.00000000 0.00000000 1.00000000
vn 0.00000000 0.00000000 1.00000000
vn 0.00000000 0.00000000 1.00000000
vn -0.70710678 0.00000000 0.70710678
vn -0.70710678 0.00000000 0.70710678
vn -0.70710678 0.00000000 0.70710678
vn -0.70710678 0.00000000 0.70710678
vn -0.20110876 0.64975542 -0.73305740
vn -0.21379928 0.69075678 -0.69075678
vn -0.21915865 0.68991648 -0.68991648
vn -0.20584858 0.64801607 -0.73328135
vn 0.00000000 -1.00000000 0.00000000
vn 0.00000000 -1.00000000 0.00000000
vn 0.00000000 -1.00000000 0.00000000
vn 0.00000000 -1.00000000 0.00000000
vn 0.00000000 -1.00000000 0.00000000
vn 0.00000000 -1.00000000 0.00000000
vn 0.00000000 -1.00000000 0.00000000
vn 0.00000000 -1.00000000 0.00000000
vn 0.29185646 0.73405977 -0.61316887
vn 0.37614449 0.64975542 -0.66055523
vn 0.37295129 0.64801607 -0.66406514
vn 0.28593622 0.73421067 -0.61577201
vn 0.33725988 0.69075678 -0.63961773
vn -0.19997881 0.95917514 -0.19997881
vn -0.20907427 0.95528839 -0.20907427
vn -0.64181148 0.67254857 0.36845143
vn -0.59213634 0.75341275 0.28590871
vn -0.59458385 0.75357062 0.28035936
vn -0.64522997 0.67089773 0.36547849
vn -0.62266913 0.71131163 0.32606583
vn -1.00000000 0.00000000 -0.00000000
vn -1.00000000 0.00000000 -0.00000000
vn -1.00000000 0.00000000 -0.00000000
vn -1.00000000 0.00000000 -0.00000000
vn 0.00000000 -0.00000000 -1.00000000
vn 0.00000000 -0.00000000 -1.00000000
vn 0.00000000 -0.00000000 -1.00000000
vn 0.00000000 -0.00000000 -1.00000000
vn 0.00000000 -0.00000000 -1.00000000
vn 0.00000000 -0.00000000 -1.00000000
s 1
usemtl Sandstone_Trim
f 4/4/4 3/3/3 1/1/1
f 3/3/3 2/2/2 1/1/1
s 2
f 6/8/8 5/7/7 3/6/6
f 6/66/8 4/65/5 26/64/64
f 26/64/64 21/68/38 25/67/65
f 17/36/36 18/37/37 21/38/38
f 20/35/35 17/36/36 21/38/38
f 26/64/64 20/69/35 21/68/38
f 25/67/65 6/66/8 26/64/64
f 6/8/8 3/6/6 4/5/5
s 3
f 8/12/12 7/11/11 5/10/10
f 8/12/12 5/10/10 6/9/9
s 4
f 8/13/13 9/14/14 7/16/16
f 9/14/14 10/15/15 7/16/16
s 5
f 11/17/17 12/18/18 8/20/20
f 12/18/18 9/19/19 8/20/20
s 6
f 13/21/21 14/22/22 11/24/24
f 14/22/22 12/23/23 11/24/24
s 7
f 13/30/30 18/29/29 17/28/28
f 13/30/30 15/26/26 14/25/25
f 13/30/30 16/27/27 15/26/26
f 13/30/30 17/28/28 16/27/27
s 8
f 19/31/31 16/32/32 20/34/34
f 16/32/32 17/33/33 20/34/34
s 9
f 19/39/39 22/40/40 15/41/41
f 19/39/39 15/41/41 16/42/42
s 10
f 1/43/43 23/44/44 22/45/45
f 1/43/43 22/45/45 19/46/46
s 11
f 21/47/47 18/48/48 13/49/49
f 21/47/47 13/49/49 11/50/50
s 12
f 24/57/57 10/58/58 9/51/51
f 9/51/51 22/55/55 23/56/56
f 12/52/52 15/54/54 22/55/55
f 12/52/52 14/53/53 15/54/54
f 9/51/51 12/52/52 22/55/55
f 23/56/56 24/57/57 9/51/51
s 13
f 25/63/63 21/59/59 11/62/62
f 11/62/62 8/61/61 25/63/63
f 8/61/61 6/60/60 25/63/63
s 14
f 19/70/66 20/73/69 26/74/70
f 26/74/70 4/72/68 1/71/67
f 26/74/70 1/71/67 19/70/66
s 15
f 2/75/71 24/76/72 23/77/73
f 2/75/71 23/77/73 1/78/74
s 16
f 3/80/76 5/79/75 7/84/80
f 7/84/80 10/83/79 24/82/78
f 24/82/78 2/81/77 7/84/80
f 2/81/77 3/80/76 7/84/80
