mtllib Wall_Curved_Small_Window.mtl
o object1
g object1
v -0.24246212 0.65000000 0.03033009
v -0.23438833 0.70740251 0.03840388
v -0.37580968 0.70740251 0.17982524
v -0.38388348 0.65000000 0.17175144
v -0.24246212 0.50000000 0.03033009
v -0.24246212 0.20000000 0.03033009
v -0.03033009 0.20000000 0.24246212
v -0.03033009 0.50000000 0.24246212
v 0.12720779 0.50000000 0.40000000
v 0.12720779 0.00000000 0.40000000
v -0.40000000 0.00000000 -0.12720779
v -0.40000000 0.50000000 -0.12720779
v -0.03033009 0.65000000 0.24246212
v -0.03840388 0.70740251 0.23438833
v -0.06139610 0.75606602 0.21139610
v -0.09580640 0.78858193 0.17698581
v -0.13639610 0.80000000 0.13639610
v -0.17698581 0.78858193 0.09580640
v -0.21139610 0.75606602 0.06139610
v -0.40000000 1.00000000 -0.12720779
v 0.12720779 1.00000000 0.40000000
v -0.23722775 0.78858193 0.31840717
v -0.27781746 0.80000000 0.27781746
v -0.20281746 0.75606602 0.35281746
v -0.17982524 0.70740251 0.37580968
v -0.17175144 0.65000000 0.38388348
v -0.17175144 0.20000000 0.38388348
v -0.17175144 0.50000000 0.38388348
v -0.38388348 0.20000000 0.17175144
v -0.31840717 0.78858193 0.23722775
v -0.35281746 0.75606602 0.20281746
v -0.40000000 1.00000000 -0.50000000
v -0.60000000 1.00000000 -0.50000000
v -0.60000000 1.00000000 -0.04436508
v 0.04436508 1.00000000 0.60000000
v 0.50000000 1.00000000 0.60000000
v 0.50000000 1.00000000 0.40000000
v 0.50000000 0.00000000 0.60000000
v 0.50000000 0.00000000 0.40000000
v 0.04436508 0.00000000 0.60000000
v 0.04436508 0.50000000 0.60000000
v -0.60000000 0.00000000 -0.04436508
v -0.60000000 0.00000000 -0.50000000
v -0.60000000 0.50000000 -0.04436508
v -0.40000000 0.00000000 -0.50000000
v -0.38388348 0.50000000 0.17175144
vt 1.00000000 0.00000000
vt 1.00000000 1.00000000
vt 0.00000000 1.00000000
vt 0.00000000 0.00000000
vt 0.50000000 0.29881554
vt 0.20000000 0.29881554
vt 0.20000000 0.70118446
vt 0.50000000 0.70118446
vt 0.50000000 1.00000000
vt 0.00000000 1.00000000
vt 0.00000000 0.00000000
vt 0.50000000 0.00000000
vt 0.65000000 0.70118446
vt 0.70740251 0.68587021
vt 0.75606602 0.64225890
vt 0.78858193 0.57698996
vt 0.80000000 0.50000000
vt 0.78858193 0.42301004
vt 0.75606602 0.35774110
vt 0.70740251 0.31412979
vt 0.65000000 0.29881554
vt 1.00000000 0.00000000
vt 1.00000000 1.00000000
vt 1.00000000 0.00000000
vt 1.00000000 1.00000000
vt 0.00000000 1.00000000
vt 0.00000000 0.00000000
vt 1.00000000 0.00000000
vt 1.00000000 1.00000000
vt 0.00000000 1.00000000
vt 0.00000000 0.00000000
vt 1.00000000 0.00000000
vt 1.00000000 1.00000000
vt 0.00000000 1.00000000
vt 0.00000000 0.00000000
vt 1.00000000 0.00000000
vt 1.00000000 1.00000000
vt 0.00000000 1.00000000
vt 0.00000000 0.00000000
vt 1.00000000 0.00000000
vt 1.00000000 1.00000000
vt 0.00000000 1.00000000
vt 0.00000000 0.00000000
vt 1.00000000 0.33333333
vt 0.00000000 0.33333333
vt 1.00000000 0.00000000
vt 1.00000000 1.00000000
vt 0.00000000 1.00000000
vt 0.00000000 0.00000000
vt 1.00000000 0.00000000
vt 1.00000000 1.00000000
vt 0.00000000 1.00000000
vt 0.00000000 0.00000000
vt 1.00000000 0.00000000
vt 1.00000000 1.00000000
vt 0.00000000 1.00000000
vt 0.00000000 0.00000000
vt 0.81818182 0.66109799
vt 0.33890201 0.18181818
vt 0.00000000 0.18181818
vt 0.00000000 0.00000000
vt 0.41421356 0.00000000
vt 1.00000000 0.58578644
vt 1.00000000 1.00000000
vt 0.81818182 1.00000000
vt 0.00000000 1.00000000
vt 0.00000000 0.00000000
vt 1.00000000 0.00000000
vt 1.00000000 1.00000000
vt 0.00000000 0.00000000
vt 1.00000000 0.00000000
vt 1.00000000 1.00000000
vt 0.00000000 1.00000000
vt 0.50000000 0.00000000
vt 1.00000000 1.00000000
vt 0.00000000 1.00000000
vt 0.00000000 0.00000000
vt 1.00000000 0.00000000
vt 0.50000000 1.00000000
vt 0.00000000 0.00000000
vt 1.00000000 0.00000000
vt 1.00000000 1.00000000
vt 0.00000000 1.00000000
vt 1.00000000 1.00000000
vt 0.00000000 1.00000000
vt 0.00000000 0.00000000
vt 1.00000000 0.00000000
vt 0.50000000 1.00000000
vt 0.81818182 0.66109799
vt 0.33890201 0.18181818
vt 0.00000000 0.18181818
vt 0.00000000 0.00000000
vt 0.41421356 0.00000000
vt 1.00000000 0.58578644
vt 1.00000000 1.00000000
vt 0.81818182 1.00000000
vt 0.00000000 0.00000000
vt 1.00000000 0.00000000
vt 1.00000000 1.00000000
vt 0.00000000 1.00000000
vt 0.50000000 0.00000000
vt 1.00000000 0.00000000
vt 1.00000000 1.00000000
vt 0.00000000 1.00000000
vt 0.00000000 0.00000000
vt 1.00000000 0.66666667
vt 0.00000000 0.66666667
vt 0.50000000 0.33539453
vt 0.20000000 0.33539453
vt 0.20000000 0.66460547
vt 0.50000000 0.66460547
vt 0.50000000 1.00000000
vt 0.00000000 1.00000000
vt 0.00000000 0.00000000
vt 0.50000000 0.00000000
vt 0.65000000 0.66460547
vt 0.70740251 0.65207562
vt 0.75606602 0.61639364
vt 0.78858193 0.56299179
vt 0.80000000 0.50000000
vt 0.78858193 0.43700821
vt 0.75606602 0.38360636
vt 0.70740251 0.34792438
vt 0.65000000 0.33539453
vt 1.00000000 0.00000000
vt 1.00000000 1.00000000
vt 1.00000000 0.00000000
vt 1.00000000 1.00000000
vt 0.00000000 1.00000000
vt 0.00000000 0.00000000
vn 0.69351992 -0.19509032 0.69351992
vn 0.69351992 -0.19509032 0.69351992
vn 0.69351992 -0.19509032 0.69351992
vn 0.69351992 -0.19509032 0.69351992
vn 0.70710678 0.00000000 -0.70710678
vn 0.70710678 0.00000000 -0.70710678
vn 0.70710678 0.00000000 -0.70710678
vn 0.70710678 0.00000000 -0.70710678
vn 0.70710678 0.00000000 -0.70710678
vn 0.70710678 0.00000000 -0.70710678
vn 0.70710678 0.00000000 -0.70710678
vn 0.70710678 0.00000000 -0.70710678
vn 0.70710678 0.00000000 -0.70710678
vn 0.70710678 0.00000000 -0.70710678
vn 0.70710678 0.00000000 -0.70710678
vn 0.70710678 0.00000000 -0.70710678
vn 0.70710678 0.00000000 -0.70710678
vn 0.70710678 0.00000000 -0.70710678
vn 0.70710678 0.00000000 -0.70710678
vn 0.70710678 0.00000000 -0.70710678
vn 0.70710678 0.00000000 -0.70710678
vn 0.70710678 0.00000000 -0.70710678
vn 0.70710678 0.00000000 -0.70710678
vn -0.13794969 -0.98078528 -0.13794969
vn -0.13794969 -0.98078528 -0.13794969
vn -0.13794969 -0.98078528 -0.13794969
vn -0.13794969 -0.98078528 -0.13794969
vn -0.39284748 -0.83146961 -0.39284748
vn -0.39284748 -0.83146961 -0.39284748
vn -0.39284748 -0.83146961 -0.39284748
vn -0.39284748 -0.83146961 -0.39284748
vn -0.58793780 -0.55557023 -0.58793780
vn -0.58793780 -0.55557023 -0.58793780
vn -0.58793780 -0.55557023 -0.58793780
vn -0.58793780 -0.55557023 -0.58793780
vn -0.69351992 -0.19509032 -0.69351992
vn -0.69351992 -0.19509032 -0.69351992
vn -0.69351992 -0.19509032 -0.69351992
vn -0.69351992 -0.19509032 -0.69351992
vn -0.70710678 0.00000000 -0.70710678
vn -0.70710678 0.00000000 -0.70710678
vn -0.70710678 0.00000000 -0.70710678
vn -0.70710678 0.00000000 -0.70710678
vn -0.70710678 0.00000000 -0.70710678
vn -0.70710678 0.00000000 -0.70710678
vn 0.00000000 1.00000000 -0.00000000
vn -0.00000000 1.00000000 -0.00000000
vn -0.00000000 1.00000000 -0.00000000
vn 0.00000000 1.00000000 -0.00000000
vn 0.39284748 -0.83146961 0.39284748
vn 0.39284748 -0.83146961 0.39284748
vn 0.39284748 -0.83146961 0.39284748
vn 0.39284748 -0.83146961 0.39284748
vn 0.13794969 -0.98078528 0.13794969
vn 0.13794969 -0.98078528 0.13794969
vn 0.13794969 -0.98078528 0.13794969
vn 0.13794969 -0.98078528 0.13794969
vn 0.00000000 1.00000000 0.00000000
vn 0.00000000 1.00000000 0.00000000
vn 0.00000000 1.00000000 0.00000000
vn 0.00000000 1.00000000 0.00000000
vn 0.00000000 1.00000000 0.00000000
vn 0.00000000 1.00000000 0.00000000
vn 0.00000000 1.00000000 0.00000000
vn 0.00000000 1.00000000 0.00000000
vn 1.00000000 0.00000000 0.00000000
vn 1.00000000 0.00000000 0.00000000
vn 1.00000000 0.00000000 0.00000000
vn 1.00000000 0.00000000 0.00000000
vn 0.00000000 0.00000000 1.00000000
vn 0.00000000 0.00000000 1.00000000
vn 0.00000000 0.00000000 1.00000000
vn 0.00000000 0.00000000 1.00000000
vn 0.00000000 0.00000000 1.00000000
vn -1.00000000 0.00000000 0.00000000
vn -1.00000000 0.00000000 0.00000000
vn -1.00000000 0.00000000 0.00000000
vn -1.00000000 0.00000000 0.00000000
vn -1.00000000 0.00000000 0.00000000
vn 0.00000000 0.00000000 -1.00000000
vn 0.00000000 0.00000000 -1.00000000
vn 0.00000000 0.00000000 -1.00000000
vn 0.00000000 0.00000000 -1.00000000
vn 1.00000000 0.00000000 0.00000000
vn 1.00000000 0.00000000 0.00000000
vn 1.00000000 0.00000000 0.00000000
vn 1.00000000 0.00000000 0.00000000
vn 1.00000000 0.00000000 0.00000000
vn 0.00000000 -1.00000000 0.00000000
vn 0.00000000 -1.00000000 0.00000000
vn 0.00000000 -1.00000000 0.00000000
vn 0.00000000 -1.00000000 0.00000000
vn 0.00000000 -1.00000000 0.00000000
vn 0.00000000 -1.00000000 0.00000000
vn 0.00000000 -1.00000000 0.00000000
vn 0.00000000 -1.00000000 0.00000000
vn 0.00000000 0.00000000 -1.00000000
vn 0.00000000 0.00000000 -1.00000000
vn 0.00000000 0.00000000 -1.00000000
vn 0.00000000 0.00000000 -1.00000000
vn 0.00000000 0.00000000 -1.00000000
vn 0.70710678 0.00000000 0.70710678
vn 0.70710678 0.00000000 0.70710678
vn 0.70710678 0.00000000 0.70710678
vn 0.70710678 0.00000000 0.70710678
vn 0.70710678 0.00000000 0.70710678
vn 0.70710678 0.00000000 0.70710678
vn -0.70710678 0.00000000 0.70710678
vn -0.70710678 0.00000000 0.70710678
vn -0.70710678 0.00000000 0.70710678
vn -0.70710678 0.00000000 0.70710678
vn -0.70710678 0.00000000 0.70710678
vn -0.70710678 0.00000000 0.70710678
vn -0.70710678 0.00000000 0.70710678
vn -0.70710678 0.00000000 0.70710678
vn -0.70710678 0.00000000 0.70710678
vn -0.70710678 0.00000000 0.70710678
vn -0.70710678 0.00000000 0.70710678
vn -0.70710678 0.00000000 0.70710678
vn -0.70710678 0.00000000 0.70710678
vn -0.70710678 0.00000000 0.70710678
vn -0.70710678 0.00000000 0.70710678
vn -0.70710678 0.00000000 0.70710678
vn -0.70710678 0.00000000 0.70710678
vn -0.70710678 0.00000000 0.70710678
vn -0.70710678 0.00000000 0.70710678
vn 0.58793780 -0.55557023 0.58793780
vn 0.58793780 -0.55557023 0.58793780
vn 0.58793780 -0.55557023 0.58793780
vn 0.58793780 -0.55557023 0.58793780
s 1
usemtl Sandstone_Trim
f 1/1/1 2/2/2 3/3/3
f 1/1/1 3/3/3 4/4/4
s 2
f 12/12/12 5/5/5 6/6/6
f 11/11/11 6/6/6 7/7/7
f 7/7/7 9/9/9 10/10/10
f 21/23/23 9/9/9 13/13/13
f 17/17/17 18/18/18 21/23/23
f 18/18/18 19/19/19 20/22/22
f 2/20/20 1/21/21 20/22/22
f 19/19/19 2/20/20 20/22/22
f 21/23/23 16/16/16 17/17/17
f 21/23/23 15/15/15 16/16/16
f 21/23/23 14/14/14 15/15/15
f 21/23/23 13/13/13 14/14/14
f 18/18/18 20/22/22 21/23/23
f 9/9/9 8/8/8 13/13/13
f 7/7/7 8/8/8 9/9/9
f 7/7/7 10/10/10 11/11/11
f 1/21/21 12/12/12 20/22/22
f 1/21/21 5/5/5 12/12/12
f 11/11/11 12/12/12 6/6/6
s 3
f 17/24/24 16/25/25 22/26/26
f 17/24/24 22/26/26 23/27/27
s 4
f 16/28/28 15/29/29 24/30/30
f 16/28/28 24/30/30 22/31/31
s 5
f 15/32/32 14/33/33 25/34/34
f 15/32/32 25/34/34 24/35/35
s 6
f 14/36/36 13/37/37 26/38/38
f 14/36/36 26/38/38 25/39/39
s 7
f 28/45/45 26/43/43 13/40/40
f 8/44/44 27/42/42 28/45/45
f 8/44/44 7/41/41 27/42/42
f 28/45/45 13/40/40 8/44/44
s 8
f 7/46/46 6/47/47 27/49/49
f 6/47/47 29/48/48 27/49/49
s 9
f 19/50/50 18/51/51 30/52/52
f 19/50/50 30/52/52 31/53/53
s 10
f 18/54/54 17/55/55 23/56/56
f 18/54/54 23/56/56 30/57/57
s 11
f 20/59/59 32/60/60 33/61/61
f 21/58/58 20/59/59 34/62/62
f 21/58/58 34/62/62 35/63/63
f 35/63/63 36/64/64 21/58/58
f 36/64/64 37/65/65 21/58/58
f 20/59/59 33/61/61 34/62/62
s 12
f 38/66/66 39/67/67 36/69/69
f 39/67/67 37/68/68 36/69/69
s 13
f 41/74/74 40/70/70 38/73/73
f 38/73/73 36/72/72 41/74/74
f 36/72/72 35/71/71 41/74/74
s 14
f 44/79/79 34/75/75 33/78/78
f 33/78/78 43/77/77 44/79/79
f 43/77/77 42/76/76 44/79/79
s 15
f 43/83/83 33/82/82 45/80/80
f 33/82/82 32/81/81 45/80/80
s 16
f 32/87/87 20/84/84 12/88/88
f 12/88/88 11/85/85 45/86/86
f 12/88/88 45/86/86 32/87/87
s 17
f 43/92/92 45/91/91 11/90/90
f 42/93/93 11/90/90 10/89/89
f 10/89/89 38/95/95 40/94/94
f 10/89/89 39/96/96 38/95/95
f 40/94/94 42/93/93 10/89/89
f 42/93/93 43/92/92 11/90/90
s 18
f 39/100/100 10/97/97 9/101/101
f 9/101/101 21/98/98 37/99/99
f 9/101/101 37/99/99 39/100/100
s 19
f 1/103/103 4/104/104 46/107/107
f 5/106/106 46/107/107 29/105/105
f 29/105/105 6/102/102 5/106/106
f 5/106/106 1/103/103 46/107/107
s 20
f 29/109/109 46/108/108 44/115/115
f 34/125/125 44/115/115 4/124/124
f 35/126/126 34/125/125 30/121/121
f 35/126/126 30/121/121 23/120/120
f 23/120/120 22/119/119 35/126/126
f 22/119/119 24/118/118 35/126/126
f 24/118/118 25/117/117 35/126/126
f 25/117/117 26/116/116 35/126/126
f 26/116/116 28/111/111 41/112/112
f 40/113/113 41/112/112 27/110/110
f 42/114/114 40/113/113 27/110/110
f 41/112/112 28/111/111 27/110/110
f 26/116/116 41/112/112 35/126/126
f 34/125/125 31/122/122 30/121/121
f 34/125/125 3/123/123 31/122/122
f 34/125/125 4/124/124 3/123/123
f 44/115/115 46/108/108 4/124/124
f 27/110/110 29/109/109 42/114/114
f 29/109/109 44/115/115 42/114/114
s 21
f 2/127/127 19/128/128 31/129/129
f 2/127/127 31/129/129 3/130/130
