mtllib Wall_Straight_Etched_End.mtl
o object1
g object1
v 0.50000000 0.45000000 0.40000000
v 0.50000000 0.00000000 0.40000000
v -0.50000000 0.00000000 0.40000000
v -0.50000000 1.00000000 0.40000000
v 0.50000000 1.00000000 0.40000000
v 0.50000000 0.55000000 0.40000000
v -0.00000000 0.55000000 0.40000000
v -0.00000000 0.45000000 0.40000000
v 0.05000000 0.50000000 0.45000000
v 0.50000000 0.50000000 0.45000000
v 0.50000000 1.00000000 0.60000000
v 0.50000000 0.55000000 0.60000000
v 0.50000000 0.50000000 0.55000000
v 0.50000000 0.45000000 0.60000000
v 0.50000000 0.00000000 0.60000000
v -0.00000000 0.45000000 0.60000000
v 0.05000000 0.50000000 0.55000000
v -0.00000000 0.55000000 0.60000000
v -0.50000000 0.00000000 0.60000000
v -0.50000000 1.00000000 0.60000000
vt 0.45000000 1.00000000
vt 0.00000000 1.00000000
vt 0.00000000 0.00000000
vt 1.00000000 0.00000000
vt 1.00000000 1.00000000
vt 0.55000000 1.00000000
vt 0.55000000 0.50000000
vt 0.45000000 0.50000000
vt 1.00000000 1.00000000
vt 0.00000000 1.00000000
vt 0.10000000 0.00000000
vt 1.00000000 0.00000000
vt 0.00000000 0.00000000
vt 1.00000000 0.50000000
vt 0.00000000 1.00000000
vt 1.00000000 1.00000000
vt 0.10000000 1.00000000
vt 0.00000000 0.00000000
vt 1.00000000 0.00000000
vt 0.45000000 0.00000000
vt 0.50000000 0.25000000
vt 0.55000000 0.00000000
vt 1.00000000 0.00000000
vt 1.00000000 1.00000000
vt 0.55000000 1.00000000
vt 0.50000000 0.75000000
vt 0.45000000 1.00000000
vt 0.00000000 1.00000000
vt 0.00000000 0.00000000
vt 1.00000000 1.00000000
vt 0.00000000 1.00000000
vt 0.10000000 0.00000000
vt 1.00000000 0.00000000
vt 1.00000000 1.00000000
vt 0.00000000 0.50000000
vt 1.00000000 0.00000000
vt 1.00000000 1.00000000
vt 0.10000000 1.00000000
vt 0.00000000 0.00000000
vt 1.00000000 0.00000000
vt 0.55000000 1.00000000
vt 0.55000000 0.50000000
vt 0.45000000 0.50000000
vt 0.45000000 1.00000000
vt 0.00000000 1.00000000
vt 0.00000000 0.00000000
vt 1.00000000 0.00000000
vt 1.00000000 1.00000000
vt 1.00000000 0.00000000
vt 1.00000000 1.00000000
vt 0.00000000 1.00000000
vt 0.00000000 0.00000000
vt 0.00000000 1.00000000
vt 0.00000000 0.00000000
vt 1.00000000 0.00000000
vt 1.00000000 1.00000000
vt 1.00000000 0.00000000
vt 1.00000000 1.00000000
vt 0.00000000 1.00000000
vt 0.00000000 0.00000000
vn 0.00000000 0.00000000 -1.00000000
vn 0.00000000 0.00000000 -1.00000000
vn 0.00000000 0.00000000 -1.00000000
vn 0.00000000 0.00000000 -1.00000000
vn 0.00000000 0.00000000 -1.00000000
vn 0.00000000 0.00000000 -1.00000000
vn 0.00000000 0.00000000 -1.00000000
vn 0.00000000 0.00000000 -1.00000000
vn 0.00000000 0.70710678 -0.70710678
vn 0.00000000 0.70710678 -0.70710678
vn 0.00000000 0.70710678 -0.70710678
vn 0.00000000 0.70710678 -0.70710678
vn 0.70710678 0.00000000 -0.70710678
vn 0.70710678 -0.00000000 -0.70710678
vn 0.70710678 0.00000000 -0.70710678
vn 0.00000000 -0.70710678 -0.70710678
vn 0.00000000 -0.70710678 -0.70710678
vn 0.00000000 -0.70710678 -0.70710678
vn 0.00000000 -0.70710678 -0.70710678
vn 1.00000000 0.00000000 0.00000000
vn 1.00000000 0.00000000 0.00000000
vn 1.00000000 0.00000000 0.00000000
vn 1.00000000 0.00000000 0.00000000
vn 1.00000000 0.00000000 0.00000000
vn 1.00000000 0.00000000 0.00000000
vn 1.00000000 0.00000000 0.00000000
vn 1.00000000 0.00000000 0.00000000
vn 1.00000000 0.00000000 0.00000000
vn 1.00000000 0.00000000 0.00000000
vn 0.00000000 0.70710678 0.70710678
vn 0.00000000 0.70710678 0.70710678
vn 0.00000000 0.70710678 0.70710678
vn 0.00000000 0.70710678 0.70710678
vn 0.70710678 0.00000000 0.70710678
vn 0.70710678 0.00000000 0.70710678
vn 0.70710678 0.00000000 0.70710678
vn 0.00000000 -0.70710678 0.70710678
vn 0.00000000 -0.70710678 0.70710678
vn 0.00000000 -0.70710678 0.70710678
vn 0.00000000 -0.70710678 0.70710678
vn 0.00000000 0.00000000 1.00000000
vn 0.00000000 0.00000000 1.00000000
vn 0.00000000 0.00000000 1.00000000
vn 0.00000000 0.00000000 1.00000000
vn 0.00000000 0.00000000 1.00000000
vn 0.00000000 0.00000000 1.00000000
vn 0.00000000 0.00000000 1.00000000
vn 0.00000000 0.00000000 1.00000000
vn 0.00000000 1.00000000 0.00000000
vn 0.00000000 1.00000000 0.00000000
vn 0.00000000 1.00000000 0.00000000
vn 0.00000000 1.00000000 0.00000000
vn -1.00000000 0.00000000 -0.00000000
vn -1.00000000 0.00000000 -0.00000000
vn -1.00000000 0.00000000 -0.00000000
vn -1.00000000 0.00000000 -0.00000000
vn 0.00000000 -1.00000000 0.00000000
vn 0.00000000 -1.00000000 0.00000000
vn 0.00000000 -1.00000000 0.00000000
vn 0.00000000 -1.00000000 0.00000000
s 1
usemtl Sandstone_Trim
f 5/5/5 6/6/6 7/7/7
f 4/4/4 7/7/7 8/8/8
f 8/8/8 2/2/2 3/3/3
f 8/8/8 1/1/1 2/2/2
f 8/8/8 3/3/3 4/4/4
f 4/4/4 5/5/5 7/7/7
s 2
f 1/9/9 8/10/10 9/11/11
f 1/9/9 9/11/11 10/12/12
s 3
f 7/15/15 9/14/14 8/13/13
s 4
f 10/16/16 9/17/17 6/19/19
f 9/17/17 7/18/18 6/19/19
s 5
f 6/22/22 5/23/23 11/24/24
f 10/21/21 6/22/22 13/26/26
f 1/20/20 13/26/26 14/27/27
f 1/20/20 14/27/27 15/28/28
f 15/28/28 2/29/29 1/20/20
f 1/20/20 10/21/21 13/26/26
f 6/22/22 12/25/25 13/26/26
f 6/22/22 11/24/24 12/25/25
s 6
f 13/33/33 17/32/32 14/30/30
f 17/32/32 16/31/31 14/30/30
s 7
f 16/34/34 17/35/35 18/36/36
s 8
f 12/40/40 18/39/39 17/38/38
f 12/40/40 17/38/38 13/37/37
s 9
f 18/42/42 12/41/41 11/48/48
f 20/47/47 16/43/43 18/42/42
f 19/46/46 15/45/45 16/43/43
f 15/45/45 14/44/44 16/43/43
f 20/47/47 19/46/46 16/43/43
f 18/42/42 11/48/48 20/47/47
s 10
f 4/52/52 20/51/51 11/50/50
f 4/52/52 11/50/50 5/49/49
s 11
f 20/56/56 4/55/55 19/53/53
f 4/55/55 3/54/54 19/53/53
s 12
f 2/57/57 15/58/58 3/60/60
f 15/58/58 19/59/59 3/60/60
