mtllib Wall_Straight_Circle_Fill.mtl
o object1
g object1
v 0.10132497 0.44150000 0.40000000
v 0.05850000 0.39867503 0.40000000
v 0.00000000 0.38300000 0.40000000
v -0.05850000 0.39867503 0.40000000
v -0.10132497 0.44150000 0.40000000
v -0.11700000 0.50000000 0.40000000
v -0.10132497 0.55850000 0.40000000
v -0.05850000 0.60132497 0.40000000
v 0.00000000 0.61700000 0.40000000
v 0.05850000 0.60132497 0.40000000
v 0.10132497 0.55850000 0.40000000
v 0.11700000 0.50000000 0.40000000
v 0.00000000 0.50000000 0.40000000
v 0.10132497 0.44150000 0.60000000
v 0.05850000 0.39867503 0.60000000
v 0.00000000 0.38300000 0.60000000
v -0.05850000 0.39867503 0.60000000
v -0.10132497 0.44150000 0.60000000
v -0.11700000 0.50000000 0.60000000
v -0.10132497 0.55850000 0.60000000
v -0.05850000 0.60132497 0.60000000
v 0.00000000 0.61700000 0.60000000
v 0.05850000 0.60132497 0.60000000
v 0.10132497 0.55850000 0.60000000
v 0.11700000 0.50000000 0.60000000
v 0.00000000 0.50000000 0.60000000
vt 0.25000000 0.93301270
vt 0.06698730 0.75000000
vt 0.00000000 0.50000000
vt 0.06698730 0.25000000
vt 0.25000000 0.06698730
vt 0.50000000 0.00000000
vt 0.75000000 0.06698730
vt 0.93301270 0.25000000
vt 1.00000000 0.50000000
vt 0.93301270 0.75000000
vt 0.75000000 0.93301270
vt 0.50000000 1.00000000
vt 0.50000000 0.50000000
vt 0.25000000 0.93301270
vt 0.06698730 0.75000000
vt 0.00000000 0.50000000
vt 0.06698730 0.25000000
vt 0.25000000 0.06698730
vt 0.50000000 0.00000000
vt 0.75000000 0.06698730
vt 0.93301270 0.25000000
vt 1.00000000 0.50000000
vt 0.93301270 0.75000000
vt 0.75000000 0.93301270
vt 0.50000000 1.00000000
vt 0.50000000 0.50000000
vt 0.00000000 1.00000000
vt 0.00000000 0.00000000
vt 1.00000000 0.00000000
vt 1.00000000 1.00000000
vt 0.00000000 1.00000000
vt 0.00000000 0.00000000
vt 1.00000000 0.00000000
vt 1.00000000 1.00000000
vt 0.00000000 1.00000000
vt 0.00000000 0.00000000
vt 1.00000000 0.00000000
vt 1.00000000 1.00000000
vt 0.00000000 1.00000000
vt 0.00000000 0.00000000
vt 1.00000000 0.00000000
vt 1.00000000 1.00000000
vt 0.00000000 1.00000000
vt 0.00000000 0.00000000
vt 1.00000000 0.00000000
vt 1.00000000 1.00000000
vt 0.00000000 1.00000000
vt 0.00000000 0.00000000
vt 1.00000000 0.00000000
vt 1.00000000 1.00000000
vt 0.00000000 1.00000000
vt 0.00000000 0.00000000
vt 1.00000000 0.00000000
vt 1.00000000 1.00000000
vt 0.00000000 1.00000000
vt 0.00000000 0.00000000
vt 1.00000000 0.00000000
vt 1.00000000 1.00000000
vt 0.00000000 1.00000000
vt 0.00000000 0.00000000
vt 1.00000000 0.00000000
vt 1.00000000 1.00000000
vt 0.00000000 1.00000000
vt 0.00000000 0.00000000
vt 1.00000000 0.00000000
vt 1.00000000 1.00000000
vt 0.00000000 1.00000000
vt 0.00000000 0.00000000
vt 1.00000000 0.00000000
vt 1.00000000 1.00000000
vt 0.00000000 1.00000000
vt 0.00000000 0.00000000
vt 1.00000000 0.00000000
vt 1.00000000 1.00000000
vn 0.00000000 -0.00000000 -1.00000000
vn 0.00000000 -0.00000000 -1.00000000
vn 0.00000000 -0.00000000 -1.00000000
vn 0.00000000 -0.00000000 -1.00000000
vn 0.00000000 -0.00000000 -1.00000000
vn 0.00000000 -0.00000000 -1.00000000
vn 0.00000000 -0.00000000 -1.00000000
vn 0.00000000 -0.00000000 -1.00000000
vn 0.00000000 -0.00000000 -1.00000000
vn 0.00000000 -0.00000000 -1.00000000
vn 0.00000000 -0.00000000 -1.00000000
vn 0.00000000 -0.00000000 -1.00000000
vn 0.00000000 -0.00000000 -1.00000000
vn -0.00000000 0.00000000 1.00000000
vn -0.00000000 0.00000000 1.00000000
vn -0.00000000 0.00000000 1.00000000
vn -0.00000000 0.00000000 1.00000000
vn -0.00000000 0.00000000 1.00000000
vn -0.00000000 0.00000000 1.00000000
vn -0.00000000 0.00000000 1.00000000
vn -0.00000000 0.00000000 1.00000000
vn -0.00000000 0.00000000 1.00000000
vn -0.00000000 0.00000000 1.00000000
vn -0.00000000 0.00000000 1.00000000
vn -0.00000000 0.00000000 1.00000000
vn -0.00000000 0.00000000 1.00000000
vn 0.70710678 -0.70710678 0.00000000
vn 0.70710678 -0.70710678 0.00000000
vn 0.70710678 -0.70710678 0.00000000
vn 0.70710678 -0.70710678 0.00000000
vn 0.25881905 -0.96592583 0.00000000
vn 0.25881905 -0.96592583 0.00000000
vn 0.25881905 -0.96592583 0.00000000
vn 0.25881905 -0.96592583 0.00000000
vn -0.25881905 -0.96592583 -0.00000000
vn -0.25881905 -0.96592583 -0.00000000
vn -0.25881905 -0.96592583 -0.00000000
vn -0.25881905 -0.96592583 -0.00000000
vn -0.70710678 -0.70710678 -0.00000000
vn -0.70710678 -0.70710678 -0.00000000
vn -0.70710678 -0.70710678 -0.00000000
vn -0.70710678 -0.70710678 -0.00000000
vn -0.96592583 -0.25881905 -0.00000000
vn -0.96592583 -0.25881905 -0.00000000
vn -0.96592583 -0.25881905 -0.00000000
vn -0.96592583 -0.25881905 -0.00000000
vn -0.96592583 0.25881905 -0.00000000
vn -0.96592583 0.25881905 -0.00000000
vn -0.96592583 0.25881905 -0.00000000
vn -0.96592583 0.25881905 -0.00000000
vn -0.70710678 0.70710678 -0.00000000
vn -0.70710678 0.70710678 -0.00000000
vn -0.70710678 0.70710678 -0.00000000
vn -0.70710678 0.70710678 -0.00000000
vn -0.25881905 0.96592583 -0.00000000
vn -0.25881905 0.96592583 -0.00000000
vn -0.25881905 0.96592583 -0.00000000
vn -0.25881905 0.96592583 -0.00000000
vn 0.25881905 0.96592583 0.00000000
vn 0.25881905 0.96592583 0.00000000
vn 0.25881905 0.96592583 0.00000000
vn 0.25881905 0.96592583 0.00000000
vn 0.70710678 0.70710678 0.00000000
vn 0.70710678 0.70710678 0.00000000
vn 0.70710678 0.70710678 0.00000000
vn 0.70710678 0.70710678 0.00000000
vn 0.96592583 0.25881905 0.00000000
vn 0.96592583 0.25881905 0.00000000
vn 0.96592583 0.25881905 0.00000000
vn 0.96592583 0.25881905 0.00000000
vn 0.96592583 -0.25881905 0.00000000
vn 0.96592583 -0.25881905 0.00000000
vn 0.96592583 -0.25881905 0.00000000
vn 0.96592583 -0.25881905 0.00000000
s 1
usemtl Sandstone_5
f 1/1/1 2/2/2 13/13/13
f 11/11/11 12/12/12 13/13/13
f 10/10/10 11/11/11 13/13/13
f 9/9/9 10/10/10 13/13/13
f 8/8/8 9/9/9 13/13/13
f 7/7/7 8/8/8 13/13/13
f 6/6/6 7/7/7 13/13/13
f 5/5/5 6/6/6 13/13/13
f 4/4/4 5/5/5 13/13/13
f 3/3/3 4/4/4 13/13/13
f 2/2/2 3/3/3 13/13/13
f 12/12/12 1/1/1 13/13/13
s 2
f 25/25/25 24/24/24 26/26/26
f 15/15/15 14/14/14 26/26/26
f 16/16/16 15/15/15 26/26/26
f 17/17/17 16/16/16 26/26/26
f 18/18/18 17/17/17 26/26/26
f 19/19/19 18/18/18 26/26/26
f 20/20/20 19/19/19 26/26/26
f 21/21/21 20/20/20 26/26/26
f 22/22/22 21/21/21 26/26/26
f 23/23/23 22/22/22 26/26/26
f 24/24/24 23/23/23 26/26/26
f 14/14/14 25/25/25 26/26/26
s 3
f 2/27/27 1/28/28 14/29/29
f 2/27/27 14/29/29 15/30/30
s 4
f 3/31/31 2/32/32 15/33/33
f 3/31/31 15/33/33 16/34/34
s 5
f 4/35/35 3/36/36 16/37/37
f 4/35/35 16/37/37 17/38/38
s 6
f 5/39/39 4/40/40 17/41/41
f 5/39/39 17/41/41 18/42/42
s 7
f 6/43/43 5/44/44 18/45/45
f 6/43/43 18/45/45 19/46/46
s 8
f 7/47/47 6/48/48 20/50/50
f 6/48/48 19/49/49 20/50/50
s 9
f 8/51/51 7/52/52 21/54/54
f 7/52/52 20/53/53 21/54/54
s 10
f 9/55/55 8/56/56 22/58/58
f 8/56/56 21/57/57 22/58/58
s 11
f 10/59/59 9/60/60 23/62/62
f 9/60/60 22/61/61 23/62/62
s 12
f 11/63/63 10/64/64 24/66/66
f 10/64/64 23/65/65 24/66/66
s 13
f 12/67/67 11/68/68 25/70/70
f 11/68/68 24/69/69 25/70/70
s 14
f 1/71/71 12/72/72 25/73/73
f 1/71/71 25/73/73 14/74/74
