mtllib Wall_Straight_Windows.mtl
o object1
g object1
v -0.38858193 0.70740251 0.40000000
v -0.35606602 0.75606602 0.40000000
v -0.35606602 0.75606602 0.60000000
v -0.38858193 0.70740251 0.60000000
v -0.25000000 0.80000000 0.40000000
v -0.30740251 0.78858193 0.40000000
v -0.40000000 0.65000000 0.40000000
v -0.40000000 0.20000000 0.40000000
v -0.25000000 0.20000000 0.40000000
v -0.25000000 0.00000000 0.40000000
v -0.50000000 0.00000000 0.40000000
v -0.50000000 1.00000000 0.40000000
v -0.25000000 1.00000000 0.40000000
v -0.10000000 0.20000000 0.40000000
v -0.10000000 0.50000000 0.40000000
v 0.10000000 0.50000000 0.40000000
v 0.10000000 0.20000000 0.40000000
v 0.40000000 0.20000000 0.40000000
v 0.40000000 0.50000000 0.40000000
v 0.50000000 0.50000000 0.40000000
v 0.50000000 0.00000000 0.40000000
v -0.10000000 0.65000000 0.40000000
v -0.11141807 0.70740251 0.40000000
v -0.14393398 0.75606602 0.40000000
v -0.19259749 0.78858193 0.40000000
v 0.50000000 1.00000000 0.40000000
v 0.40000000 0.65000000 0.40000000
v 0.38858193 0.70740251 0.40000000
v 0.35606602 0.75606602 0.40000000
v 0.30740251 0.78858193 0.40000000
v 0.25000000 0.80000000 0.40000000
v 0.19259749 0.78858193 0.40000000
v 0.14393398 0.75606602 0.40000000
v 0.11141807 0.70740251 0.40000000
v 0.10000000 0.65000000 0.40000000
v -0.19259749 0.78858193 0.60000000
v -0.25000000 0.80000000 0.60000000
v -0.14393398 0.75606602 0.60000000
v -0.11141807 0.70740251 0.60000000
v -0.10000000 0.65000000 0.60000000
v -0.10000000 0.20000000 0.60000000
v -0.10000000 0.50000000 0.60000000
v -0.40000000 0.20000000 0.60000000
v -0.25000000 0.20000000 0.60000000
v -0.40000000 0.65000000 0.60000000
v -0.30740251 0.78858193 0.60000000
v 0.30740251 0.78858193 0.60000000
v 0.25000000 0.80000000 0.60000000
v 0.35606602 0.75606602 0.60000000
v 0.38858193 0.70740251 0.60000000
v 0.40000000 0.65000000 0.60000000
v 0.40000000 0.20000000 0.60000000
v 0.40000000 0.50000000 0.60000000
v 0.10000000 0.20000000 0.60000000
v 0.10000000 0.65000000 0.60000000
v 0.10000000 0.50000000 0.60000000
v 0.11141807 0.70740251 0.60000000
v 0.14393398 0.75606602 0.60000000
v 0.19259749 0.78858193 0.60000000
v 0.50000000 1.00000000 0.60000000
v -0.50000000 1.00000000 0.60000000
v -0.25000000 1.00000000 0.60000000
v -0.50000000 0.00000000 0.60000000
v 0.50000000 0.00000000 0.60000000
v -0.25000000 0.00000000 0.60000000
v 0.50000000 0.50000000 0.60000000
vt 1.00000000 0.00000000
vt 1.00000000 1.00000000
vt 0.00000000 1.00000000
vt 0.00000000 0.00000000
vt 0.80000000 0.25000000
vt 0.78858193 0.19259749
vt 0.75606602 0.14393398
vt 0.70740251 0.11141807
vt 0.65000000 0.10000000
vt 0.20000000 0.10000000
vt 0.20000000 0.25000000
vt 0.00000000 0.25000000
vt 0.00000000 0.00000000
vt 1.00000000 0.00000000
vt 1.00000000 0.25000000
vt 0.20000000 0.40000000
vt 0.50000000 0.40000000
vt 0.50000000 0.60000000
vt 0.20000000 0.60000000
vt 0.20000000 0.90000000
vt 0.50000000 0.90000000
vt 0.50000000 1.00000000
vt 0.00000000 1.00000000
vt 0.65000000 0.40000000
vt 0.70740251 0.38858193
vt 0.75606602 0.35606602
vt 0.78858193 0.30740251
vt 1.00000000 1.00000000
vt 0.65000000 0.90000000
vt 0.70740251 0.88858193
vt 0.75606602 0.85606602
vt 0.78858193 0.80740251
vt 0.80000000 0.75000000
vt 0.78858193 0.69259749
vt 0.75606602 0.64393398
vt 0.70740251 0.61141807
vt 0.65000000 0.60000000
vt 1.00000000 0.00000000
vt 1.00000000 1.00000000
vt 0.00000000 1.00000000
vt 0.00000000 0.00000000
vt 1.00000000 0.00000000
vt 1.00000000 1.00000000
vt 0.00000000 1.00000000
vt 0.00000000 0.00000000
vt 1.00000000 0.00000000
vt 1.00000000 1.00000000
vt 0.00000000 1.00000000
vt 0.00000000 0.00000000
vt 1.00000000 0.00000000
vt 1.00000000 1.00000000
vt 0.00000000 1.00000000
vt 0.00000000 0.00000000
vt 1.00000000 0.00000000
vt 1.00000000 1.00000000
vt 0.00000000 1.00000000
vt 0.00000000 0.00000000
vt 1.00000000 0.33333333
vt 0.00000000 0.33333333
vt 1.00000000 0.00000000
vt 1.00000000 1.00000000
vt 0.00000000 1.00000000
vt 0.00000000 0.00000000
vt 1.00000000 0.50000000
vt 0.00000000 0.50000000
vt 1.00000000 0.00000000
vt 1.00000000 1.00000000
vt 0.00000000 1.00000000
vt 0.00000000 0.00000000
vt 1.00000000 0.00000000
vt 1.00000000 1.00000000
vt 0.00000000 1.00000000
vt 0.00000000 0.00000000
vt 0.00000000 1.00000000
vt 0.00000000 0.00000000
vt 1.00000000 0.00000000
vt 1.00000000 1.00000000
vt 0.00000000 1.00000000
vt 0.00000000 0.00000000
vt 1.00000000 0.00000000
vt 1.00000000 1.00000000
vt 0.00000000 1.00000000
vt 0.00000000 0.00000000
vt 1.00000000 0.00000000
vt 1.00000000 1.00000000
vt 0.00000000 1.00000000
vt 0.00000000 0.00000000
vt 1.00000000 0.00000000
vt 1.00000000 1.00000000
vt 0.00000000 1.00000000
vt 0.00000000 0.00000000
vt 1.00000000 0.00000000
vt 1.00000000 1.00000000
vt 0.00000000 0.33333333
vt 1.00000000 0.33333333
vt 0.00000000 1.00000000
vt 0.00000000 0.00000000
vt 1.00000000 0.00000000
vt 1.00000000 1.00000000
vt 0.00000000 1.00000000
vt 0.00000000 0.00000000
vt 1.00000000 0.00000000
vt 1.00000000 1.00000000
vt 0.00000000 0.66666667
vt 1.00000000 0.66666667
vt 0.00000000 1.00000000
vt 0.00000000 0.00000000
vt 1.00000000 0.00000000
vt 1.00000000 1.00000000
vt 0.00000000 1.00000000
vt 0.00000000 0.00000000
vt 1.00000000 0.00000000
vt 1.00000000 1.00000000
vt 0.00000000 1.00000000
vt 0.00000000 0.00000000
vt 1.00000000 0.00000000
vt 1.00000000 1.00000000
vt 0.00000000 1.00000000
vt 0.00000000 0.00000000
vt 1.00000000 0.00000000
vt 1.00000000 1.00000000
vt 1.00000000 0.00000000
vt 1.00000000 1.00000000
vt 0.00000000 1.00000000
vt 0.00000000 0.00000000
vt 0.25000000 1.00000000
vt 0.25000000 0.00000000
vt 1.00000000 0.00000000
vt 1.00000000 1.00000000
vt 0.00000000 1.00000000
vt 0.00000000 0.00000000
vt 1.00000000 0.00000000
vt 1.00000000 1.00000000
vt 0.00000000 1.00000000
vt 0.00000000 0.00000000
vt 0.25000000 1.00000000
vt 0.25000000 0.00000000
vt 1.00000000 0.00000000
vt 1.00000000 1.00000000
vt 0.00000000 1.00000000
vt 0.00000000 0.00000000
vt 0.50000000 1.00000000
vt 0.50000000 0.00000000
vt 1.00000000 0.00000000
vt 1.00000000 1.00000000
vt 0.00000000 1.00000000
vt 0.00000000 0.00000000
vt 0.80000000 0.25000000
vt 0.78858193 0.19259749
vt 0.75606602 0.14393398
vt 0.70740251 0.11141807
vt 0.65000000 0.10000000
vt 0.20000000 0.10000000
vt 0.20000000 0.25000000
vt 0.00000000 0.25000000
vt 0.00000000 0.00000000
vt 1.00000000 0.00000000
vt 1.00000000 0.25000000
vt 0.20000000 0.40000000
vt 0.50000000 0.40000000
vt 0.50000000 0.60000000
vt 0.20000000 0.60000000
vt 0.20000000 0.90000000
vt 0.50000000 0.90000000
vt 0.50000000 1.00000000
vt 0.00000000 1.00000000
vt 0.65000000 0.40000000
vt 0.70740251 0.38858193
vt 0.75606602 0.35606602
vt 0.78858193 0.30740251
vt 1.00000000 1.00000000
vt 0.65000000 0.90000000
vt 0.70740251 0.88858193
vt 0.75606602 0.85606602
vt 0.78858193 0.80740251
vt 0.80000000 0.75000000
vt 0.78858193 0.69259749
vt 0.75606602 0.64393398
vt 0.70740251 0.61141807
vt 0.65000000 0.60000000
vt 1.00000000 0.00000000
vt 1.00000000 1.00000000
vt 0.00000000 1.00000000
vt 0.00000000 0.00000000
vn 0.83146961 -0.55557023 0.00000000
vn 0.83146961 -0.55557023 0.00000000
vn 0.83146961 -0.55557023 0.00000000
vn 0.83146961 -0.55557023 0.00000000
vn 0.00000000 0.00000000 -1.00000000
vn 0.00000000 0.00000000 -1.00000000
vn 0.00000000 0.00000000 -1.00000000
vn 0.00000000 0.00000000 -1.00000000
vn 0.00000000 0.00000000 -1.00000000
vn 0.00000000 0.00000000 -1.00000000
vn 0.00000000 0.00000000 -1.00000000
vn 0.00000000 0.00000000 -1.00000000
vn 0.00000000 0.00000000 -1.00000000
vn 0.00000000 0.00000000 -1.00000000
vn 0.00000000 0.00000000 -1.00000000
vn 0.00000000 0.00000000 -1.00000000
vn 0.00000000 0.00000000 -1.00000000
vn 0.00000000 0.00000000 -1.00000000
vn 0.00000000 0.00000000 -1.00000000
vn 0.00000000 0.00000000 -1.00000000
vn 0.00000000 0.00000000 -1.00000000
vn 0.00000000 0.00000000 -1.00000000
vn 0.00000000 0.00000000 -1.00000000
vn 0.00000000 0.00000000 -1.00000000
vn 0.00000000 0.00000000 -1.00000000
vn 0.00000000 0.00000000 -1.00000000
vn 0.00000000 0.00000000 -1.00000000
vn 0.00000000 0.00000000 -1.00000000
vn 0.00000000 0.00000000 -1.00000000
vn 0.00000000 0.00000000 -1.00000000
vn 0.00000000 0.00000000 -1.00000000
vn 0.00000000 0.00000000 -1.00000000
vn 0.00000000 0.00000000 -1.00000000
vn 0.00000000 0.00000000 -1.00000000
vn 0.00000000 0.00000000 -1.00000000
vn 0.00000000 0.00000000 -1.00000000
vn 0.00000000 0.00000000 -1.00000000
vn -0.19509032 -0.98078528 0.00000000
vn -0.19509032 -0.98078528 0.00000000
vn -0.19509032 -0.98078528 0.00000000
vn -0.19509032 -0.98078528 0.00000000
vn -0.55557023 -0.83146961 0.00000000
vn -0.55557023 -0.83146961 0.00000000
vn -0.55557023 -0.83146961 0.00000000
vn -0.55557023 -0.83146961 0.00000000
vn -0.83146961 -0.55557023 0.00000000
vn -0.83146961 -0.55557023 0.00000000
vn -0.83146961 -0.55557023 0.00000000
vn -0.83146961 -0.55557023 0.00000000
vn -0.98078528 -0.19509032 0.00000000
vn -0.98078528 -0.19509032 0.00000000
vn -0.98078528 -0.19509032 0.00000000
vn -0.98078528 -0.19509032 0.00000000
vn -1.00000000 0.00000000 0.00000000
vn -1.00000000 0.00000000 0.00000000
vn -1.00000000 0.00000000 0.00000000
vn -1.00000000 0.00000000 0.00000000
vn -1.00000000 0.00000000 0.00000000
vn -1.00000000 0.00000000 0.00000000
vn 0.00000000 1.00000000 0.00000000
vn 0.00000000 1.00000000 0.00000000
vn 0.00000000 1.00000000 0.00000000
vn 0.00000000 1.00000000 0.00000000
vn 0.00000000 1.00000000 0.00000000
vn 0.00000000 1.00000000 0.00000000
vn 1.00000000 0.00000000 0.00000000
vn 1.00000000 0.00000000 0.00000000
vn 1.00000000 0.00000000 0.00000000
vn 1.00000000 0.00000000 0.00000000
vn 0.19509032 -0.98078528 0.00000000
vn 0.19509032 -0.98078528 0.00000000
vn 0.19509032 -0.98078528 0.00000000
vn 0.19509032 -0.98078528 0.00000000
vn -0.19509032 -0.98078528 0.00000000
vn -0.19509032 -0.98078528 0.00000000
vn -0.19509032 -0.98078528 0.00000000
vn -0.19509032 -0.98078528 0.00000000
vn -0.55557023 -0.83146961 0.00000000
vn -0.55557023 -0.83146961 0.00000000
vn -0.55557023 -0.83146961 0.00000000
vn -0.55557023 -0.83146961 0.00000000
vn -0.83146961 -0.55557023 0.00000000
vn -0.83146961 -0.55557023 0.00000000
vn -0.83146961 -0.55557023 0.00000000
vn -0.83146961 -0.55557023 0.00000000
vn -0.98078528 -0.19509032 0.00000000
vn -0.98078528 -0.19509032 0.00000000
vn -0.98078528 -0.19509032 0.00000000
vn -0.98078528 -0.19509032 0.00000000
vn -1.00000000 0.00000000 0.00000000
vn -1.00000000 0.00000000 0.00000000
vn -1.00000000 0.00000000 0.00000000
vn -1.00000000 0.00000000 0.00000000
vn -1.00000000 0.00000000 0.00000000
vn -1.00000000 0.00000000 0.00000000
vn 0.00000000 1.00000000 0.00000000
vn 0.00000000 1.00000000 0.00000000
vn 0.00000000 1.00000000 0.00000000
vn 0.00000000 1.00000000 0.00000000
vn 1.00000000 0.00000000 0.00000000
vn 1.00000000 0.00000000 0.00000000
vn 1.00000000 0.00000000 0.00000000
vn 1.00000000 0.00000000 0.00000000
vn 1.00000000 0.00000000 0.00000000
vn 1.00000000 0.00000000 0.00000000
vn 0.98078528 -0.19509032 0.00000000
vn 0.98078528 -0.19509032 0.00000000
vn 0.98078528 -0.19509032 0.00000000
vn 0.98078528 -0.19509032 0.00000000
vn 0.83146961 -0.55557023 0.00000000
vn 0.83146961 -0.55557023 0.00000000
vn 0.83146961 -0.55557023 0.00000000
vn 0.83146961 -0.55557023 0.00000000
vn 0.55557023 -0.83146961 0.00000000
vn 0.55557023 -0.83146961 0.00000000
vn 0.55557023 -0.83146961 0.00000000
vn 0.55557023 -0.83146961 0.00000000
vn 0.19509032 -0.98078528 0.00000000
vn 0.19509032 -0.98078528 0.00000000
vn 0.19509032 -0.98078528 0.00000000
vn 0.19509032 -0.98078528 0.00000000
vn 0.00000000 1.00000000 0.00000000
vn 0.00000000 1.00000000 0.00000000
vn 0.00000000 1.00000000 0.00000000
vn 0.00000000 1.00000000 0.00000000
vn 0.00000000 1.00000000 0.00000000
vn 0.00000000 1.00000000 0.00000000
vn -1.00000000 0.00000000 0.00000000
vn -1.00000000 0.00000000 0.00000000
vn -1.00000000 0.00000000 0.00000000
vn -1.00000000 0.00000000 0.00000000
vn 0.00000000 -1.00000000 0.00000000
vn 0.00000000 -1.00000000 0.00000000
vn 0.00000000 -1.00000000 0.00000000
vn 0.00000000 -1.00000000 0.00000000
vn 0.00000000 -1.00000000 0.00000000
vn 0.00000000 -1.00000000 0.00000000
vn 1.00000000 0.00000000 0.00000000
vn 1.00000000 0.00000000 0.00000000
vn 1.00000000 0.00000000 0.00000000
vn 1.00000000 0.00000000 0.00000000
vn 1.00000000 0.00000000 0.00000000
vn 1.00000000 0.00000000 0.00000000
vn 0.98078528 -0.19509032 0.00000000
vn 0.98078528 -0.19509032 0.00000000
vn 0.98078528 -0.19509032 0.00000000
vn 0.98078528 -0.19509032 0.00000000
vn 0.00000000 0.00000000 1.00000000
vn 0.00000000 0.00000000 1.00000000
vn 0.00000000 0.00000000 1.00000000
vn 0.00000000 0.00000000 1.00000000
vn 0.00000000 0.00000000 1.00000000
vn 0.00000000 0.00000000 1.00000000
vn 0.00000000 0.00000000 1.00000000
vn 0.00000000 0.00000000 1.00000000
vn 0.00000000 0.00000000 1.00000000
vn 0.00000000 0.00000000 1.00000000
vn 0.00000000 0.00000000 1.00000000
vn 0.00000000 0.00000000 1.00000000
vn 0.00000000 0.00000000 1.00000000
vn 0.00000000 0.00000000 1.00000000
vn 0.00000000 0.00000000 1.00000000
vn 0.00000000 0.00000000 1.00000000
vn 0.00000000 0.00000000 1.00000000
vn 0.00000000 0.00000000 1.00000000
vn 0.00000000 0.00000000 1.00000000
vn 0.00000000 0.00000000 1.00000000
vn 0.00000000 0.00000000 1.00000000
vn 0.00000000 0.00000000 1.00000000
vn 0.00000000 0.00000000 1.00000000
vn 0.00000000 0.00000000 1.00000000
vn 0.00000000 0.00000000 1.00000000
vn 0.00000000 0.00000000 1.00000000
vn 0.00000000 0.00000000 1.00000000
vn 0.00000000 0.00000000 1.00000000
vn 0.00000000 0.00000000 1.00000000
vn 0.00000000 0.00000000 1.00000000
vn 0.00000000 0.00000000 1.00000000
vn 0.00000000 0.00000000 1.00000000
vn 0.00000000 0.00000000 1.00000000
vn 0.55557023 -0.83146961 0.00000000
vn 0.55557023 -0.83146961 0.00000000
vn 0.55557023 -0.83146961 0.00000000
vn 0.55557023 -0.83146961 0.00000000
s 1
usemtl Sandstone_Trim
f 1/1/1 2/2/2 3/3/3
f 1/1/1 3/3/3 4/4/4
s 2
f 13/15/15 5/5/5 6/6/6
f 12/14/14 6/6/6 2/7/7
f 7/9/9 11/13/13 12/14/14
f 8/10/10 10/12/12 11/13/13
f 17/19/19 21/23/23 10/12/12
f 18/20/20 20/22/22 21/23/23
f 26/28/28 20/22/22 27/29/29
f 26/28/28 32/34/34 33/35/35
f 33/35/35 24/26/26 25/27/27
f 34/36/36 23/25/25 24/26/26
f 34/36/36 22/24/24 23/25/25
f 35/37/37 16/18/18 22/24/24
f 14/16/16 15/17/17 16/18/18
f 16/18/18 15/17/17 22/24/24
f 34/36/36 35/37/37 22/24/24
f 33/35/35 34/36/36 24/26/26
f 26/28/28 31/33/33 32/34/34
f 26/28/28 30/32/32 31/33/33
f 26/28/28 29/31/31 30/32/32
f 26/28/28 28/30/30 29/31/31
f 26/28/28 27/29/29 28/30/30
f 33/35/35 25/27/27 26/28/28
f 20/22/22 19/21/21 27/29/29
f 18/20/20 19/21/21 20/22/22
f 17/19/19 18/20/20 21/23/23
f 14/16/16 16/18/18 17/19/19
f 10/12/12 14/16/16 17/19/19
f 10/12/12 9/11/11 14/16/16
f 8/10/10 9/11/11 10/12/12
f 7/9/9 8/10/10 11/13/13
f 12/14/14 1/8/8 7/9/9
f 12/14/14 2/7/7 1/8/8
f 25/27/27 13/15/15 26/28/28
f 25/27/27 5/5/5 13/15/15
f 12/14/14 13/15/15 6/6/6
s 3
f 5/38/38 25/39/39 36/40/40
f 5/38/38 36/40/40 37/41/41
s 4
f 25/42/42 24/43/43 38/44/44
f 25/42/42 38/44/44 36/45/45
s 5
f 24/46/46 23/47/47 39/48/48
f 24/46/46 39/48/48 38/49/49
s 6
f 23/50/50 22/51/51 40/52/52
f 23/50/50 40/52/52 39/53/53
s 7
f 42/59/59 40/57/57 22/54/54
f 14/55/55 41/56/56 42/59/59
f 42/59/59 15/58/58 14/55/55
f 42/59/59 22/54/54 15/58/58
s 8
f 44/65/65 41/63/63 14/60/60
f 8/61/61 43/62/62 44/65/65
f 44/65/65 9/64/64 8/61/61
f 44/65/65 14/60/60 9/64/64
s 9
f 8/66/66 7/67/67 43/69/69
f 7/67/67 45/68/68 43/69/69
s 10
f 6/70/70 5/71/71 37/72/72
f 6/70/70 37/72/72 46/73/73
s 11
f 47/74/74 48/75/75 30/77/77
f 48/75/75 31/76/76 30/77/77
s 12
f 49/78/78 47/79/79 29/81/81
f 47/79/79 30/80/80 29/81/81
s 13
f 50/82/82 49/83/83 28/85/85
f 49/83/83 29/84/84 28/85/85
s 14
f 51/86/86 50/87/87 27/89/89
f 50/87/87 28/88/88 27/89/89
s 15
f 53/94/94 51/91/91 27/92/92
f 53/94/94 19/95/95 18/93/93
f 18/93/93 52/90/90 53/94/94
f 53/94/94 27/92/92 19/95/95
s 16
f 54/96/96 52/97/97 18/98/98
f 54/96/96 18/98/98 17/99/99
s 17
f 35/103/103 55/100/100 56/104/104
f 56/104/104 17/102/102 16/105/105
f 56/104/104 54/101/101 17/102/102
f 16/105/105 35/103/103 56/104/104
s 18
f 57/106/106 55/107/107 34/109/109
f 55/107/107 35/108/108 34/109/109
s 19
f 58/110/110 57/111/111 33/113/113
f 57/111/111 34/112/112 33/113/113
s 20
f 59/114/114 58/115/115 32/117/117
f 58/115/115 33/116/116 32/117/117
s 21
f 48/118/118 59/119/119 31/121/121
f 59/119/119 32/120/120 31/121/121
s 22
f 12/125/125 61/124/124 62/126/126
f 62/126/126 60/123/123 26/122/122
f 26/122/122 13/127/127 62/126/126
f 13/127/127 12/125/125 62/126/126
s 23
f 11/131/131 63/130/130 12/128/128
f 63/130/130 61/129/129 12/128/128
s 24
f 65/136/136 63/134/134 11/135/135
f 21/132/132 65/136/136 10/137/137
f 21/132/132 64/133/133 65/136/136
f 65/136/136 11/135/135 10/137/137
s 25
f 26/138/138 60/139/139 66/142/142
f 66/142/142 21/141/141 20/143/143
f 66/142/142 64/140/140 21/141/141
f 20/143/143 26/138/138 66/142/142
s 26
f 7/144/144 1/145/145 4/146/146
f 7/144/144 4/146/146 45/147/147
s 27
f 46/149/149 37/148/148 62/158/158
f 60/171/171 62/158/158 36/170/170
f 36/170/170 38/169/169 58/178/178
f 38/169/169 57/179/179 58/178/178
f 39/168/168 40/167/167 57/179/179
f 40/167/167 56/161/161 55/180/180
f 54/162/162 56/161/161 41/159/159
f 41/159/159 44/154/154 65/155/155
f 63/156/156 65/155/155 43/153/153
f 61/157/157 63/156/156 45/152/152
f 45/152/152 4/151/151 61/157/157
f 4/151/151 3/150/150 61/157/157
f 63/156/156 43/153/153 45/152/152
f 65/155/155 44/154/154 43/153/153
f 65/155/155 64/166/166 54/162/162
f 64/166/166 66/165/165 52/163/163
f 51/172/172 53/164/164 66/165/165
f 66/165/165 53/164/164 52/163/163
f 64/166/166 52/163/163 54/162/162
f 54/162/162 41/159/159 65/155/155
f 56/161/161 42/160/160 41/159/159
f 40/167/167 42/160/160 56/161/161
f 40/167/167 55/180/180 57/179/179
f 38/169/169 39/168/168 57/179/179
f 58/178/178 59/177/177 60/171/171
f 59/177/177 48/176/176 60/171/171
f 48/176/176 47/175/175 60/171/171
f 47/175/175 49/174/174 60/171/171
f 49/174/174 50/173/173 60/171/171
f 50/173/173 51/172/172 60/171/171
f 60/171/171 36/170/170 58/178/178
f 51/172/172 66/165/165 60/171/171
f 62/158/158 37/148/148 36/170/170
f 3/150/150 46/149/149 61/157/157
f 46/149/149 62/158/158 61/157/157
s 28
f 2/181/181 6/182/182 46/183/183
f 2/181/181 46/183/183 3/184/184
